G04 #@! TF.GenerationSoftware,KiCad,Pcbnew,8.0.5*
G04 #@! TF.CreationDate,2025-03-18T10:54:49-07:00*
G04 #@! TF.ProjectId,keyboard,6b657962-6f61-4726-942e-6b696361645f,rev?*
G04 #@! TF.SameCoordinates,Original*
G04 #@! TF.FileFunction,Copper,L1,Top*
G04 #@! TF.FilePolarity,Positive*
%FSLAX46Y46*%
G04 Gerber Fmt 4.6, Leading zero omitted, Abs format (unit mm)*
G04 Created by KiCad (PCBNEW 8.0.5) date 2025-03-18 10:54:49*
%MOMM*%
%LPD*%
G01*
G04 APERTURE LIST*
G04 Aperture macros list*
%AMRoundRect*
0 Rectangle with rounded corners*
0 $1 Rounding radius*
0 $2 $3 $4 $5 $6 $7 $8 $9 X,Y pos of 4 corners*
0 Add a 4 corners polygon primitive as box body*
4,1,4,$2,$3,$4,$5,$6,$7,$8,$9,$2,$3,0*
0 Add four circle primitives for the rounded corners*
1,1,$1+$1,$2,$3*
1,1,$1+$1,$4,$5*
1,1,$1+$1,$6,$7*
1,1,$1+$1,$8,$9*
0 Add four rect primitives between the rounded corners*
20,1,$1+$1,$2,$3,$4,$5,0*
20,1,$1+$1,$4,$5,$6,$7,0*
20,1,$1+$1,$6,$7,$8,$9,0*
20,1,$1+$1,$8,$9,$2,$3,0*%
%AMFreePoly0*
4,1,28,0.605014,0.794986,0.644504,0.794986,0.724698,0.756366,0.780194,0.686777,0.800000,0.600000,0.800000,-0.600000,0.780194,-0.686777,0.724698,-0.756366,0.644504,-0.794986,0.605014,-0.794986,0.600000,-0.800000,0.000000,-0.800000,-0.178017,-0.779942,-0.347107,-0.720775,-0.498792,-0.625465,-0.625465,-0.498792,-0.720775,-0.347107,-0.779942,-0.178017,-0.800000,0.000000,-0.779942,0.178017,
-0.720775,0.347107,-0.625465,0.498792,-0.498792,0.625465,-0.347107,0.720775,-0.178017,0.779942,0.000000,0.800000,0.600000,0.800000,0.605014,0.794986,0.605014,0.794986,$1*%
%AMFreePoly1*
4,1,28,0.178017,0.779942,0.347107,0.720775,0.498792,0.625465,0.625465,0.498792,0.720775,0.347107,0.779942,0.178017,0.800000,0.000000,0.779942,-0.178017,0.720775,-0.347107,0.625465,-0.498792,0.498792,-0.625465,0.347107,-0.720775,0.178017,-0.779942,0.000000,-0.800000,-0.600000,-0.800000,-0.605014,-0.794986,-0.644504,-0.794986,-0.724698,-0.756366,-0.780194,-0.686777,-0.800000,-0.600000,
-0.800000,0.600000,-0.780194,0.686777,-0.724698,0.756366,-0.644504,0.794986,-0.605014,0.794986,-0.600000,0.800000,0.000000,0.800000,0.178017,0.779942,0.178017,0.779942,$1*%
G04 Aperture macros list end*
G04 #@! TA.AperFunction,ComponentPad*
%ADD10C,2.200000*%
G04 #@! TD*
G04 #@! TA.AperFunction,ComponentPad*
%ADD11R,1.700000X1.700000*%
G04 #@! TD*
G04 #@! TA.AperFunction,ComponentPad*
%ADD12O,1.700000X1.700000*%
G04 #@! TD*
G04 #@! TA.AperFunction,ComponentPad*
%ADD13C,1.400000*%
G04 #@! TD*
G04 #@! TA.AperFunction,ComponentPad*
%ADD14O,1.400000X1.400000*%
G04 #@! TD*
G04 #@! TA.AperFunction,ComponentPad*
%ADD15R,2.000000X2.000000*%
G04 #@! TD*
G04 #@! TA.AperFunction,ComponentPad*
%ADD16C,2.000000*%
G04 #@! TD*
G04 #@! TA.AperFunction,ComponentPad*
%ADD17R,2.000000X3.200000*%
G04 #@! TD*
G04 #@! TA.AperFunction,ComponentPad*
%ADD18R,1.800000X1.800000*%
G04 #@! TD*
G04 #@! TA.AperFunction,ComponentPad*
%ADD19O,1.800000X1.800000*%
G04 #@! TD*
G04 #@! TA.AperFunction,ComponentPad*
%ADD20RoundRect,0.200000X0.600000X0.600000X-0.600000X0.600000X-0.600000X-0.600000X0.600000X-0.600000X0*%
G04 #@! TD*
G04 #@! TA.AperFunction,ComponentPad*
%ADD21C,1.600000*%
G04 #@! TD*
G04 #@! TA.AperFunction,ComponentPad*
%ADD22FreePoly0,180.000000*%
G04 #@! TD*
G04 #@! TA.AperFunction,ComponentPad*
%ADD23FreePoly1,180.000000*%
G04 #@! TD*
G04 #@! TA.AperFunction,Conductor*
%ADD24C,0.250000*%
G04 #@! TD*
G04 APERTURE END LIST*
D10*
X323402500Y-137545000D03*
X317052500Y-140085000D03*
X218627500Y-156595000D03*
X212277500Y-159135000D03*
X356740000Y-99445000D03*
X350390000Y-101985000D03*
X199577500Y-156595000D03*
X193227500Y-159135000D03*
X266252500Y-137545000D03*
X259902500Y-140085000D03*
X194815000Y-99445000D03*
X188465000Y-101985000D03*
X318640000Y-118495000D03*
X312290000Y-121035000D03*
X237677500Y-156595000D03*
X231327500Y-159135000D03*
X271015000Y-99445000D03*
X264665000Y-101985000D03*
X304352500Y-137545000D03*
X298002500Y-140085000D03*
X309115000Y-99445000D03*
X302765000Y-101985000D03*
X111471250Y-156595000D03*
X105121250Y-159135000D03*
X204340000Y-118495000D03*
X197990000Y-121035000D03*
X275777500Y-156595000D03*
X269427500Y-159135000D03*
X104327500Y-118495000D03*
X97977500Y-121035000D03*
X354358750Y-137545000D03*
X348008750Y-140085000D03*
X161477500Y-156595000D03*
X155127500Y-159135000D03*
X290065000Y-99445000D03*
X283715000Y-101985000D03*
X313877500Y-156595000D03*
X307527500Y-159135000D03*
X209102500Y-137545000D03*
X202752500Y-140085000D03*
X256727500Y-156595000D03*
X250377500Y-159135000D03*
X290065000Y-175645000D03*
X283715000Y-178185000D03*
X185290000Y-118495000D03*
X178940000Y-121035000D03*
X149571250Y-175645000D03*
X143221250Y-178185000D03*
X223390000Y-118495000D03*
X217040000Y-121035000D03*
X351977500Y-175645000D03*
X345627500Y-178185000D03*
X280540000Y-118495000D03*
X274190000Y-121035000D03*
X371027500Y-175645000D03*
X364677500Y-178185000D03*
X294827500Y-156595000D03*
X288477500Y-159135000D03*
D11*
X383712500Y-160500000D03*
D12*
X386252500Y-160500000D03*
X388792500Y-160500000D03*
X391332500Y-160500000D03*
D10*
X128140000Y-118495000D03*
X121790000Y-121035000D03*
X261490000Y-118495000D03*
X255140000Y-121035000D03*
X166240000Y-118495000D03*
X159890000Y-121035000D03*
X137665000Y-99445000D03*
X131315000Y-101985000D03*
X151952500Y-137545000D03*
X145602500Y-140085000D03*
X361502500Y-118495000D03*
X355152500Y-121035000D03*
X242440000Y-118495000D03*
X236090000Y-121035000D03*
X132902500Y-137545000D03*
X126552500Y-140085000D03*
X309115000Y-175645000D03*
X302765000Y-178185000D03*
X337690000Y-118495000D03*
X331340000Y-121035000D03*
X371027500Y-156595000D03*
X364677500Y-159135000D03*
D13*
X388500000Y-157500000D03*
D14*
X393580000Y-157500000D03*
D10*
X251965000Y-99445000D03*
X245615000Y-101985000D03*
X171002500Y-137545000D03*
X164652500Y-140085000D03*
X118615000Y-99445000D03*
X112265000Y-101985000D03*
X330546250Y-175645000D03*
X324196250Y-178185000D03*
X125758750Y-175645000D03*
X119408750Y-178185000D03*
X156715000Y-99445000D03*
X150365000Y-101985000D03*
X285302500Y-137545000D03*
X278952500Y-140085000D03*
D15*
X385000000Y-116000000D03*
D16*
X390000000Y-116000000D03*
X387500000Y-116000000D03*
D17*
X381900000Y-108500000D03*
X393100000Y-108500000D03*
D16*
X390000000Y-101500000D03*
X385000000Y-101500000D03*
D10*
X232915000Y-99445000D03*
X226565000Y-101985000D03*
X106708750Y-137545000D03*
X100358750Y-140085000D03*
X328165000Y-99445000D03*
X321815000Y-101985000D03*
X101946250Y-175645000D03*
X95596250Y-178185000D03*
X213865000Y-99445000D03*
X207515000Y-101985000D03*
X299590000Y-118495000D03*
X293240000Y-121035000D03*
X190052500Y-137545000D03*
X183702500Y-140085000D03*
X228152500Y-137545000D03*
X221802500Y-140085000D03*
X390077500Y-175645000D03*
X383727500Y-178185000D03*
X142427500Y-156595000D03*
X136077500Y-159135000D03*
X99565000Y-99445000D03*
X93215000Y-101985000D03*
X221009000Y-175645000D03*
X214659000Y-178185000D03*
X175765000Y-99445000D03*
X169415000Y-101985000D03*
X180527500Y-156595000D03*
X174177500Y-159135000D03*
D13*
X386600000Y-157500000D03*
D14*
X381520000Y-157500000D03*
D10*
X342452500Y-156595000D03*
X336102500Y-159135000D03*
X247202500Y-137545000D03*
X240852500Y-140085000D03*
X147190000Y-118495000D03*
X140840000Y-121035000D03*
D18*
X330387500Y-147705000D03*
D19*
X330387500Y-140085000D03*
D18*
X292287500Y-147705000D03*
D19*
X292287500Y-140085000D03*
D18*
X149412500Y-166755000D03*
D19*
X149412500Y-159135000D03*
D18*
X135125000Y-185805000D03*
D19*
X135125000Y-178185000D03*
D18*
X358962500Y-185805000D03*
D19*
X358962500Y-178185000D03*
D18*
X371650000Y-117810000D03*
D19*
X371650000Y-110190000D03*
D18*
X306575000Y-128655000D03*
D19*
X306575000Y-121035000D03*
D18*
X268475000Y-128655000D03*
D19*
X268475000Y-121035000D03*
D18*
X106550000Y-109605000D03*
D19*
X106550000Y-101985000D03*
D18*
X173225000Y-128655000D03*
D19*
X173225000Y-121035000D03*
D18*
X125600000Y-109605000D03*
D19*
X125600000Y-101985000D03*
D18*
X339912500Y-185805000D03*
D19*
X339912500Y-178185000D03*
D18*
X254187500Y-147705000D03*
D19*
X254187500Y-140085000D03*
D18*
X397062500Y-185805000D03*
D19*
X397062500Y-178185000D03*
D18*
X278000000Y-109605000D03*
D19*
X278000000Y-101985000D03*
D20*
X396427500Y-96480000D03*
D21*
X396427500Y-99020000D03*
D22*
X396427500Y-101560000D03*
D21*
X396427500Y-104100000D03*
X396427500Y-106640000D03*
X396427500Y-109180000D03*
X396427500Y-111720000D03*
D22*
X396427500Y-114260000D03*
D21*
X396427500Y-116800000D03*
X396427500Y-119340000D03*
X396427500Y-121880000D03*
X396427500Y-124420000D03*
D22*
X396427500Y-126960000D03*
D21*
X396427500Y-129500000D03*
X396427500Y-132040000D03*
X396427500Y-134580000D03*
X396427500Y-137120000D03*
D22*
X396427500Y-139660000D03*
D21*
X396427500Y-142200000D03*
X396427500Y-144740000D03*
X378647500Y-144740000D03*
X378647500Y-142200000D03*
D23*
X378647500Y-139660000D03*
D21*
X378647500Y-137120000D03*
X378647500Y-134580000D03*
X378647500Y-132040000D03*
X378647500Y-129500000D03*
D23*
X378647500Y-126960000D03*
D21*
X378647500Y-124420000D03*
X378647500Y-121880000D03*
X378647500Y-119340000D03*
X378647500Y-116800000D03*
D23*
X378647500Y-114260000D03*
D21*
X378647500Y-111720000D03*
X378647500Y-109180000D03*
X378647500Y-106640000D03*
X378647500Y-104100000D03*
D23*
X378647500Y-101560000D03*
D21*
X378647500Y-99020000D03*
X378647500Y-96480000D03*
D18*
X144650000Y-109605000D03*
D19*
X144650000Y-101985000D03*
D18*
X335150000Y-109605000D03*
D19*
X335150000Y-101985000D03*
D18*
X187512500Y-166755000D03*
D19*
X187512500Y-159135000D03*
D18*
X344675000Y-128655000D03*
D19*
X344675000Y-121035000D03*
D18*
X177987500Y-147705000D03*
D19*
X177987500Y-140085000D03*
D18*
X154175000Y-128655000D03*
D19*
X154175000Y-121035000D03*
D18*
X216087500Y-147705000D03*
D19*
X216087500Y-140085000D03*
D18*
X378012500Y-185805000D03*
D19*
X378012500Y-178185000D03*
D18*
X230375000Y-128655000D03*
D19*
X230375000Y-121035000D03*
D18*
X201800000Y-109605000D03*
D19*
X201800000Y-101985000D03*
D18*
X168462500Y-166755000D03*
D19*
X168462500Y-159135000D03*
D18*
X297050000Y-185805000D03*
D19*
X297050000Y-178185000D03*
D18*
X325625000Y-128655000D03*
D19*
X325625000Y-121035000D03*
D18*
X258950000Y-109605000D03*
D19*
X258950000Y-101985000D03*
D18*
X358962500Y-166755000D03*
D19*
X358962500Y-159135000D03*
D18*
X244662500Y-166755000D03*
D19*
X244662500Y-159135000D03*
D18*
X273237500Y-147705000D03*
D19*
X273237500Y-140085000D03*
D18*
X263712500Y-166755000D03*
D19*
X263712500Y-159135000D03*
D18*
X130362500Y-166755000D03*
D19*
X130362500Y-159135000D03*
D18*
X297050000Y-109605000D03*
D19*
X297050000Y-101985000D03*
D18*
X182750000Y-109605000D03*
D19*
X182750000Y-101985000D03*
D18*
X225612500Y-166755000D03*
D19*
X225612500Y-159135000D03*
D18*
X371650000Y-106965000D03*
D19*
X371650000Y-99345000D03*
D18*
X120837500Y-147705000D03*
D19*
X120837500Y-140085000D03*
D18*
X135125000Y-128655000D03*
D19*
X135125000Y-121035000D03*
D18*
X206562500Y-166755000D03*
D19*
X206562500Y-159135000D03*
D18*
X371650000Y-147705000D03*
D19*
X371650000Y-140085000D03*
D18*
X211325000Y-128655000D03*
D19*
X211325000Y-121035000D03*
D18*
X311337500Y-147705000D03*
D19*
X311337500Y-140085000D03*
D18*
X111312500Y-185805000D03*
D19*
X111312500Y-178185000D03*
D18*
X282762500Y-166755000D03*
D19*
X282762500Y-159135000D03*
D18*
X278000000Y-185805000D03*
D19*
X278000000Y-178185000D03*
D18*
X316100000Y-109605000D03*
D19*
X316100000Y-101985000D03*
D18*
X235137500Y-147705000D03*
D19*
X235137500Y-140085000D03*
D18*
X320862500Y-166755000D03*
D19*
X320862500Y-159135000D03*
D18*
X378012500Y-166755000D03*
D19*
X378012500Y-159135000D03*
D18*
X371649500Y-128655000D03*
D19*
X371649500Y-121035000D03*
D18*
X220850000Y-109605000D03*
D19*
X220850000Y-101985000D03*
D18*
X239900000Y-109605000D03*
D19*
X239900000Y-101985000D03*
D18*
X158937500Y-147705000D03*
D19*
X158937500Y-140085000D03*
D18*
X116075000Y-128655000D03*
D19*
X116075000Y-121035000D03*
D18*
X249425000Y-128655000D03*
D19*
X249425000Y-121035000D03*
D18*
X163700000Y-109605000D03*
D19*
X163700000Y-101985000D03*
D18*
X197037500Y-147705000D03*
D19*
X197037500Y-140085000D03*
D18*
X192275000Y-128655000D03*
D19*
X192275000Y-121035000D03*
D18*
X301812500Y-166755000D03*
D19*
X301812500Y-159135000D03*
D18*
X316100000Y-185805000D03*
D19*
X316100000Y-178185000D03*
D18*
X139887500Y-147705000D03*
D19*
X139887500Y-140085000D03*
D18*
X287525000Y-128655000D03*
D19*
X287525000Y-121035000D03*
D18*
X158937500Y-185805000D03*
D19*
X158937500Y-178185000D03*
D24*
X104327500Y-118495000D02*
X104327500Y-135163750D01*
X106708750Y-137545000D02*
X106708750Y-160628750D01*
X106708750Y-160628750D02*
X101946250Y-165391250D01*
X101946250Y-165391250D02*
X101946250Y-175645000D01*
X104327500Y-135163750D02*
X106708750Y-137545000D01*
X99565000Y-99445000D02*
X99565000Y-113732500D01*
X99565000Y-113732500D02*
X104327500Y-118495000D01*
X163286896Y-185350000D02*
X274214104Y-185350000D01*
X118615000Y-99445000D02*
X118615000Y-149451250D01*
X111471250Y-163913757D02*
X123202493Y-175645000D01*
X147000500Y-188000000D02*
X160636896Y-188000000D01*
X118615000Y-149451250D02*
X111471250Y-156595000D01*
X274214104Y-185350000D02*
X276344104Y-187480000D01*
X399850000Y-180331980D02*
X399850000Y-120185031D01*
X276344104Y-187480000D02*
X392701980Y-187480000D01*
X125758750Y-175645000D02*
X134645500Y-175645000D01*
X134645500Y-175645000D02*
X147000500Y-188000000D01*
X111471250Y-156595000D02*
X111471250Y-163913757D01*
X399850000Y-120185031D02*
X396464969Y-116800000D01*
X392701980Y-187480000D02*
X399850000Y-180331980D01*
X160636896Y-188000000D02*
X163286896Y-185350000D01*
X123202493Y-175645000D02*
X125758750Y-175645000D01*
X149075007Y-179410000D02*
X176410500Y-179410000D01*
X142427500Y-156595000D02*
X142427500Y-172927000D01*
X276530500Y-187030000D02*
X392515584Y-187030000D01*
X181900500Y-184900000D02*
X274400500Y-184900000D01*
X132902500Y-147070000D02*
X142427500Y-156595000D01*
X142592007Y-172927000D02*
X149075007Y-179410000D01*
X128140000Y-118495000D02*
X128140000Y-132782500D01*
X128140000Y-132782500D02*
X132902500Y-137545000D01*
X142427500Y-172927000D02*
X142592007Y-172927000D01*
X137665000Y-99445000D02*
X137665000Y-108970000D01*
X392515584Y-187030000D02*
X399400000Y-180145584D01*
X274400500Y-184900000D02*
X276530500Y-187030000D01*
X176410500Y-179410000D02*
X181900500Y-184900000D01*
X137665000Y-108970000D02*
X128140000Y-118495000D01*
X132902500Y-137545000D02*
X132902500Y-147070000D01*
X399400000Y-180145584D02*
X399400000Y-122275031D01*
X399400000Y-122275031D02*
X396464969Y-119340000D01*
X161477500Y-163738750D02*
X149571250Y-175645000D01*
X394459188Y-184450000D02*
X398950000Y-179959188D01*
X151952500Y-147070000D02*
X161477500Y-156595000D01*
X398950000Y-179959188D02*
X398950000Y-124365031D01*
X161477500Y-156595000D02*
X161477500Y-163738750D01*
X182268698Y-184450000D02*
X394459188Y-184450000D01*
X151952500Y-137545000D02*
X151952500Y-147070000D01*
X156715000Y-105343757D02*
X147190000Y-114868757D01*
X398950000Y-124365031D02*
X396464969Y-121880000D01*
X147190000Y-114868757D02*
X147190000Y-118495000D01*
X147190000Y-118495000D02*
X147190000Y-132782500D01*
X161557448Y-163738750D02*
X182268698Y-184450000D01*
X161477500Y-163738750D02*
X161557448Y-163738750D01*
X156715000Y-99445000D02*
X156715000Y-105343757D01*
X147190000Y-132782500D02*
X151952500Y-137545000D01*
X180527500Y-156595000D02*
X207932500Y-184000000D01*
X171002500Y-137545000D02*
X171002500Y-147070000D01*
X175765000Y-108970000D02*
X166240000Y-118495000D01*
X175765000Y-99445000D02*
X175765000Y-108970000D01*
X166240000Y-118495000D02*
X166240000Y-132782500D01*
X207932500Y-184000000D02*
X394272792Y-184000000D01*
X166240000Y-132782500D02*
X171002500Y-137545000D01*
X171002500Y-147070000D02*
X180527500Y-156595000D01*
X398500000Y-126455031D02*
X396464969Y-124420000D01*
X398500000Y-179772792D02*
X398500000Y-126455031D01*
X394272792Y-184000000D02*
X398500000Y-179772792D01*
X190052500Y-147070000D02*
X199577500Y-156595000D01*
X185290000Y-118495000D02*
X185290000Y-132782500D01*
X394086396Y-183550000D02*
X395500000Y-182136396D01*
X398012531Y-133398896D02*
X398050000Y-133361427D01*
X214481588Y-183550000D02*
X394086396Y-183550000D01*
X199577500Y-156595000D02*
X199577500Y-168645912D01*
X185290000Y-132782500D02*
X190052500Y-137545000D01*
X398050000Y-131085032D02*
X397982484Y-131017516D01*
X395500000Y-182136396D02*
X395500000Y-148042500D01*
X194815000Y-108970000D02*
X185290000Y-118495000D01*
X397982484Y-131017516D02*
X396464969Y-129500000D01*
X199577500Y-168645912D02*
X214481588Y-183550000D01*
X398012531Y-145529969D02*
X398012531Y-133398896D01*
X398050000Y-131085031D02*
X397982484Y-131017516D01*
X190052500Y-137545000D02*
X190052500Y-147070000D01*
X194815000Y-99445000D02*
X194815000Y-108970000D01*
X398050000Y-133361427D02*
X398050000Y-131085032D01*
X395500000Y-148042500D02*
X398012531Y-145529969D01*
X209102500Y-137545000D02*
X209102500Y-147070000D01*
X213865000Y-99445000D02*
X213865000Y-108970000D01*
X218627500Y-173263500D02*
X221009000Y-175645000D01*
X213865000Y-108970000D02*
X204340000Y-118495000D01*
X218627500Y-156595000D02*
X218627500Y-173263500D01*
X397552500Y-140133064D02*
X397562531Y-140123033D01*
X393900000Y-183100000D02*
X395000000Y-182000000D01*
X204340000Y-118495000D02*
X204340000Y-132782500D01*
X397562531Y-133175031D02*
X396427500Y-132040000D01*
X209102500Y-147070000D02*
X218627500Y-156595000D01*
X397562531Y-140123033D02*
X397562531Y-133175031D01*
X395000000Y-182000000D02*
X395000000Y-147849969D01*
X228464000Y-183100000D02*
X393900000Y-183100000D01*
X395000000Y-147849969D02*
X397552500Y-145297469D01*
X221009000Y-175645000D02*
X228464000Y-183100000D01*
X397552500Y-145297469D02*
X397552500Y-140133064D01*
X204340000Y-132782500D02*
X209102500Y-137545000D01*
X232915000Y-108970000D02*
X223390000Y-118495000D01*
X232915000Y-99445000D02*
X232915000Y-108970000D01*
X228152500Y-147070000D02*
X237677500Y-156595000D01*
X223390000Y-132782500D02*
X228152500Y-137545000D01*
X228152500Y-137545000D02*
X228152500Y-147070000D01*
X223390000Y-118495000D02*
X223390000Y-132782500D01*
X242440000Y-132782500D02*
X247202500Y-137545000D01*
X242440000Y-118495000D02*
X242440000Y-132782500D01*
X251965000Y-99445000D02*
X251965000Y-108970000D01*
X247202500Y-147070000D02*
X256727500Y-156595000D01*
X247202500Y-137545000D02*
X247202500Y-147070000D01*
X251965000Y-108970000D02*
X242440000Y-118495000D01*
X271015000Y-108970000D02*
X261490000Y-118495000D01*
X261490000Y-132782500D02*
X266252500Y-137545000D01*
X266252500Y-147070000D02*
X275777500Y-156595000D01*
X266252500Y-137545000D02*
X266252500Y-147070000D01*
X261490000Y-118495000D02*
X261490000Y-132782500D01*
X271015000Y-99445000D02*
X271015000Y-108970000D01*
X294827500Y-156595000D02*
X294827500Y-170882500D01*
X290065000Y-108970000D02*
X280540000Y-118495000D01*
X290065000Y-99445000D02*
X290065000Y-108970000D01*
X280540000Y-132782500D02*
X285302500Y-137545000D01*
X294827500Y-170882500D02*
X290065000Y-175645000D01*
X285302500Y-137545000D02*
X285302500Y-147070000D01*
X285302500Y-147070000D02*
X294827500Y-156595000D01*
X280540000Y-118495000D02*
X280540000Y-132782500D01*
X309115000Y-108970000D02*
X299590000Y-118495000D01*
X309115000Y-175645000D02*
X313877500Y-170882500D01*
X299590000Y-118495000D02*
X299590000Y-132782500D01*
X309115000Y-99445000D02*
X309115000Y-108970000D01*
X304352500Y-147070000D02*
X313877500Y-156595000D01*
X304352500Y-137545000D02*
X304352500Y-147070000D01*
X313877500Y-170882500D02*
X313877500Y-156595000D01*
X299590000Y-132782500D02*
X304352500Y-137545000D01*
X369760500Y-176760000D02*
X370070500Y-177070000D01*
X330546250Y-175645000D02*
X349962245Y-175645000D01*
X349962245Y-175645000D02*
X351387245Y-177070000D01*
X371773878Y-177070000D02*
X376787500Y-172056378D01*
X330546250Y-169089993D02*
X330546250Y-175645000D01*
X328165000Y-108970000D02*
X318640000Y-118495000D01*
X376787500Y-158627588D02*
X377500000Y-157915088D01*
X377500000Y-157915088D02*
X377500000Y-143347500D01*
X352567755Y-177070000D02*
X352877755Y-176760000D01*
X318640000Y-132782500D02*
X323402500Y-137545000D01*
X352877755Y-176760000D02*
X369760500Y-176760000D01*
X323402500Y-137545000D02*
X323402500Y-161946243D01*
X351387245Y-177070000D02*
X352567755Y-177070000D01*
X328165000Y-99445000D02*
X328165000Y-108970000D01*
X370070500Y-177070000D02*
X371773878Y-177070000D01*
X323402500Y-161946243D02*
X330546250Y-169089993D01*
X318640000Y-118495000D02*
X318640000Y-132782500D01*
X377500000Y-143347500D02*
X378647500Y-142200000D01*
X376787500Y-172056378D02*
X376787500Y-158627588D01*
X351977500Y-173438757D02*
X351977500Y-175645000D01*
X354358750Y-144688750D02*
X342452500Y-156595000D01*
X337690000Y-118495000D02*
X354358750Y-135163750D01*
X354358750Y-135163750D02*
X354358750Y-137545000D01*
X354358750Y-137545000D02*
X354358750Y-144688750D01*
X342452500Y-163913757D02*
X351977500Y-173438757D01*
X342452500Y-156595000D02*
X342452500Y-163913757D01*
X371027500Y-156595000D02*
X371027500Y-175645000D01*
X356740000Y-99445000D02*
X356740000Y-113732500D01*
X361502500Y-118495000D02*
X361502500Y-123002500D01*
X377000000Y-136227500D02*
X378647500Y-134580000D01*
X356740000Y-113732500D02*
X361502500Y-118495000D01*
X377000000Y-150622500D02*
X377000000Y-136227500D01*
X361502500Y-123002500D02*
X373080000Y-134580000D01*
X371027500Y-156595000D02*
X377000000Y-150622500D01*
X373080000Y-134580000D02*
X378647500Y-134580000D01*
X385675000Y-102825000D02*
X387000000Y-101500000D01*
X377062469Y-104094040D02*
X378331509Y-102825000D01*
X379782531Y-133175031D02*
X378647500Y-132040000D01*
X377062469Y-130454969D02*
X377062469Y-104094040D01*
X379782531Y-165350031D02*
X379782531Y-133175031D01*
X378331509Y-102825000D02*
X385675000Y-102825000D01*
X378647500Y-132040000D02*
X377062469Y-130454969D01*
X390077500Y-175645000D02*
X379782531Y-165350031D01*
X387000000Y-101500000D02*
X390000000Y-101500000D01*
X376612469Y-123692031D02*
X376612469Y-101887531D01*
X371649500Y-128655000D02*
X376612469Y-123692031D01*
X376612469Y-101887531D02*
X378355000Y-100145000D01*
X395302500Y-100145000D02*
X396427500Y-99020000D01*
X378355000Y-100145000D02*
X395302500Y-100145000D01*
X395212500Y-144443896D02*
X395212500Y-123712500D01*
X383712500Y-155943896D02*
X395212500Y-144443896D01*
X383712500Y-160500000D02*
X383712500Y-155943896D01*
X395212500Y-123712500D02*
X387500000Y-116000000D01*
X380232531Y-159232531D02*
X380232531Y-120925031D01*
X390157500Y-161675000D02*
X382675000Y-161675000D01*
X380232531Y-120925031D02*
X378647500Y-119340000D01*
X391332500Y-160500000D02*
X390157500Y-161675000D01*
X382675000Y-161675000D02*
X380232531Y-159232531D01*
X386252500Y-160500000D02*
X386252500Y-157847500D01*
X386252500Y-157847500D02*
X386600000Y-157500000D01*
X394762500Y-144257500D02*
X394762500Y-132915000D01*
X394762500Y-132915000D02*
X378647500Y-116800000D01*
X381520000Y-157500000D02*
X394762500Y-144257500D01*
X377512469Y-128364969D02*
X377512469Y-116344040D01*
X384500000Y-115500000D02*
X385000000Y-116000000D01*
X378647500Y-129500000D02*
X377512469Y-128364969D01*
X377512469Y-116344040D02*
X378356509Y-115500000D01*
X378356509Y-115500000D02*
X384500000Y-115500000D01*
M02*
