G04 #@! TF.GenerationSoftware,KiCad,Pcbnew,8.0.5*
G04 #@! TF.CreationDate,2025-03-18T10:54:49-07:00*
G04 #@! TF.ProjectId,keyboard,6b657962-6f61-4726-942e-6b696361645f,rev?*
G04 #@! TF.SameCoordinates,Original*
G04 #@! TF.FileFunction,Soldermask,Bot*
G04 #@! TF.FilePolarity,Negative*
%FSLAX46Y46*%
G04 Gerber Fmt 4.6, Leading zero omitted, Abs format (unit mm)*
G04 Created by KiCad (PCBNEW 8.0.5) date 2025-03-18 10:54:49*
%MOMM*%
%LPD*%
G01*
G04 APERTURE LIST*
G04 Aperture macros list*
%AMRoundRect*
0 Rectangle with rounded corners*
0 $1 Rounding radius*
0 $2 $3 $4 $5 $6 $7 $8 $9 X,Y pos of 4 corners*
0 Add a 4 corners polygon primitive as box body*
4,1,4,$2,$3,$4,$5,$6,$7,$8,$9,$2,$3,0*
0 Add four circle primitives for the rounded corners*
1,1,$1+$1,$2,$3*
1,1,$1+$1,$4,$5*
1,1,$1+$1,$6,$7*
1,1,$1+$1,$8,$9*
0 Add four rect primitives between the rounded corners*
20,1,$1+$1,$2,$3,$4,$5,0*
20,1,$1+$1,$4,$5,$6,$7,0*
20,1,$1+$1,$6,$7,$8,$9,0*
20,1,$1+$1,$8,$9,$2,$3,0*%
%AMFreePoly0*
4,1,28,0.605014,0.794986,0.644504,0.794986,0.724698,0.756366,0.780194,0.686777,0.800000,0.600000,0.800000,-0.600000,0.780194,-0.686777,0.724698,-0.756366,0.644504,-0.794986,0.605014,-0.794986,0.600000,-0.800000,0.000000,-0.800000,-0.178017,-0.779942,-0.347107,-0.720775,-0.498792,-0.625465,-0.625465,-0.498792,-0.720775,-0.347107,-0.779942,-0.178017,-0.800000,0.000000,-0.779942,0.178017,
-0.720775,0.347107,-0.625465,0.498792,-0.498792,0.625465,-0.347107,0.720775,-0.178017,0.779942,0.000000,0.800000,0.600000,0.800000,0.605014,0.794986,0.605014,0.794986,$1*%
%AMFreePoly1*
4,1,28,0.178017,0.779942,0.347107,0.720775,0.498792,0.625465,0.625465,0.498792,0.720775,0.347107,0.779942,0.178017,0.800000,0.000000,0.779942,-0.178017,0.720775,-0.347107,0.625465,-0.498792,0.498792,-0.625465,0.347107,-0.720775,0.178017,-0.779942,0.000000,-0.800000,-0.600000,-0.800000,-0.605014,-0.794986,-0.644504,-0.794986,-0.724698,-0.756366,-0.780194,-0.686777,-0.800000,-0.600000,
-0.800000,0.600000,-0.780194,0.686777,-0.724698,0.756366,-0.644504,0.794986,-0.605014,0.794986,-0.600000,0.800000,0.000000,0.800000,0.178017,0.779942,0.178017,0.779942,$1*%
G04 Aperture macros list end*
%ADD10C,1.700000*%
%ADD11C,4.000000*%
%ADD12C,2.200000*%
%ADD13C,3.050000*%
%ADD14R,1.700000X1.700000*%
%ADD15O,1.700000X1.700000*%
%ADD16C,1.400000*%
%ADD17O,1.400000X1.400000*%
%ADD18R,2.000000X2.000000*%
%ADD19C,2.000000*%
%ADD20R,2.000000X3.200000*%
%ADD21R,1.800000X1.800000*%
%ADD22O,1.800000X1.800000*%
%ADD23RoundRect,0.200000X0.600000X0.600000X-0.600000X0.600000X-0.600000X-0.600000X0.600000X-0.600000X0*%
%ADD24C,1.600000*%
%ADD25FreePoly0,180.000000*%
%ADD26FreePoly1,180.000000*%
G04 APERTURE END LIST*
D10*
X315782500Y-142625000D03*
D11*
X320862500Y-142625000D03*
D10*
X325942500Y-142625000D03*
D12*
X323402500Y-137545000D03*
X317052500Y-140085000D03*
D10*
X211007500Y-161675000D03*
D11*
X216087500Y-161675000D03*
D10*
X221167500Y-161675000D03*
D12*
X218627500Y-156595000D03*
X212277500Y-159135000D03*
D13*
X342300000Y-97525000D03*
D11*
X342300000Y-112765000D03*
D10*
X349120000Y-104525000D03*
D11*
X354200000Y-104525000D03*
D10*
X359280000Y-104525000D03*
D13*
X366100000Y-97525000D03*
D11*
X366100000Y-112765000D03*
D12*
X356740000Y-99445000D03*
X350390000Y-101985000D03*
D10*
X191957500Y-161675000D03*
D11*
X197037500Y-161675000D03*
D10*
X202117500Y-161675000D03*
D12*
X199577500Y-156595000D03*
X193227500Y-159135000D03*
D10*
X258632500Y-142625000D03*
D11*
X263712500Y-142625000D03*
D10*
X268792500Y-142625000D03*
D12*
X266252500Y-137545000D03*
X259902500Y-140085000D03*
D10*
X187195000Y-104525000D03*
D11*
X192275000Y-104525000D03*
D10*
X197355000Y-104525000D03*
D12*
X194815000Y-99445000D03*
X188465000Y-101985000D03*
D10*
X311020000Y-123575000D03*
D11*
X316100000Y-123575000D03*
D10*
X321180000Y-123575000D03*
D12*
X318640000Y-118495000D03*
X312290000Y-121035000D03*
D10*
X230057500Y-161675000D03*
D11*
X235137500Y-161675000D03*
D10*
X240217500Y-161675000D03*
D12*
X237677500Y-156595000D03*
X231327500Y-159135000D03*
D10*
X263395000Y-104525000D03*
D11*
X268475000Y-104525000D03*
D10*
X273555000Y-104525000D03*
D12*
X271015000Y-99445000D03*
X264665000Y-101985000D03*
D10*
X296732500Y-142625000D03*
D11*
X301812500Y-142625000D03*
D10*
X306892500Y-142625000D03*
D12*
X304352500Y-137545000D03*
X298002500Y-140085000D03*
D10*
X301495000Y-104525000D03*
D11*
X306575000Y-104525000D03*
D10*
X311655000Y-104525000D03*
D12*
X309115000Y-99445000D03*
X302765000Y-101985000D03*
D13*
X97031250Y-154675000D03*
D11*
X97031250Y-169915000D03*
D10*
X103851250Y-161675000D03*
D11*
X108931250Y-161675000D03*
D10*
X114011250Y-161675000D03*
D13*
X120831250Y-154675000D03*
D11*
X120831250Y-169915000D03*
D12*
X111471250Y-156595000D03*
X105121250Y-159135000D03*
D10*
X196720000Y-123575000D03*
D11*
X201800000Y-123575000D03*
D10*
X206880000Y-123575000D03*
D12*
X204340000Y-118495000D03*
X197990000Y-121035000D03*
D10*
X268157500Y-161675000D03*
D11*
X273237500Y-161675000D03*
D10*
X278317500Y-161675000D03*
D12*
X275777500Y-156595000D03*
X269427500Y-159135000D03*
D10*
X96707500Y-123575000D03*
D11*
X101787500Y-123575000D03*
D10*
X106867500Y-123575000D03*
D12*
X104327500Y-118495000D03*
X97977500Y-121035000D03*
D13*
X339918750Y-135625000D03*
D11*
X339918750Y-150865000D03*
D10*
X346738750Y-142625000D03*
D11*
X351818750Y-142625000D03*
D10*
X356898750Y-142625000D03*
D13*
X363718750Y-135625000D03*
D11*
X363718750Y-150865000D03*
D12*
X354358750Y-137545000D03*
X348008750Y-140085000D03*
D10*
X153857500Y-161675000D03*
D11*
X158937500Y-161675000D03*
D10*
X164017500Y-161675000D03*
D12*
X161477500Y-156595000D03*
X155127500Y-159135000D03*
D10*
X282445000Y-104525000D03*
D11*
X287525000Y-104525000D03*
D10*
X292605000Y-104525000D03*
D12*
X290065000Y-99445000D03*
X283715000Y-101985000D03*
D10*
X306257500Y-161675000D03*
D11*
X311337500Y-161675000D03*
D10*
X316417500Y-161675000D03*
D12*
X313877500Y-156595000D03*
X307527500Y-159135000D03*
D10*
X201482500Y-142625000D03*
D11*
X206562500Y-142625000D03*
D10*
X211642500Y-142625000D03*
D12*
X209102500Y-137545000D03*
X202752500Y-140085000D03*
D10*
X249107500Y-161675000D03*
D11*
X254187500Y-161675000D03*
D10*
X259267500Y-161675000D03*
D12*
X256727500Y-156595000D03*
X250377500Y-159135000D03*
D10*
X282445000Y-180725000D03*
D11*
X287525000Y-180725000D03*
D10*
X292605000Y-180725000D03*
D12*
X290065000Y-175645000D03*
X283715000Y-178185000D03*
D10*
X177670000Y-123575000D03*
D11*
X182750000Y-123575000D03*
D10*
X187830000Y-123575000D03*
D12*
X185290000Y-118495000D03*
X178940000Y-121035000D03*
D10*
X141951250Y-180725000D03*
D11*
X147031250Y-180725000D03*
D10*
X152111250Y-180725000D03*
D12*
X149571250Y-175645000D03*
X143221250Y-178185000D03*
D10*
X215770000Y-123575000D03*
D11*
X220850000Y-123575000D03*
D10*
X225930000Y-123575000D03*
D12*
X223390000Y-118495000D03*
X217040000Y-121035000D03*
D10*
X344357500Y-180725000D03*
D11*
X349437500Y-180725000D03*
D10*
X354517500Y-180725000D03*
D12*
X351977500Y-175645000D03*
X345627500Y-178185000D03*
D10*
X272920000Y-123575000D03*
D11*
X278000000Y-123575000D03*
D10*
X283080000Y-123575000D03*
D12*
X280540000Y-118495000D03*
X274190000Y-121035000D03*
D10*
X363407500Y-180725000D03*
D11*
X368487500Y-180725000D03*
D10*
X373567500Y-180725000D03*
D12*
X371027500Y-175645000D03*
X364677500Y-178185000D03*
D10*
X287207500Y-161675000D03*
D11*
X292287500Y-161675000D03*
D10*
X297367500Y-161675000D03*
D12*
X294827500Y-156595000D03*
X288477500Y-159135000D03*
D14*
X383712500Y-160500000D03*
D15*
X386252500Y-160500000D03*
X388792500Y-160500000D03*
X391332500Y-160500000D03*
D10*
X120520000Y-123575000D03*
D11*
X125600000Y-123575000D03*
D10*
X130680000Y-123575000D03*
D12*
X128140000Y-118495000D03*
X121790000Y-121035000D03*
D10*
X253870000Y-123575000D03*
D11*
X258950000Y-123575000D03*
D10*
X264030000Y-123575000D03*
D12*
X261490000Y-118495000D03*
X255140000Y-121035000D03*
D10*
X158620000Y-123575000D03*
D11*
X163700000Y-123575000D03*
D10*
X168780000Y-123575000D03*
D12*
X166240000Y-118495000D03*
X159890000Y-121035000D03*
D10*
X130045000Y-104525000D03*
D11*
X135125000Y-104525000D03*
D10*
X140205000Y-104525000D03*
D12*
X137665000Y-99445000D03*
X131315000Y-101985000D03*
D10*
X144332500Y-142625000D03*
D11*
X149412500Y-142625000D03*
D10*
X154492500Y-142625000D03*
D12*
X151952500Y-137545000D03*
X145602500Y-140085000D03*
D10*
X353882500Y-123575000D03*
D11*
X358962500Y-123575000D03*
D10*
X364042500Y-123575000D03*
D12*
X361502500Y-118495000D03*
X355152500Y-121035000D03*
D10*
X234820000Y-123575000D03*
D11*
X239900000Y-123575000D03*
D10*
X244980000Y-123575000D03*
D12*
X242440000Y-118495000D03*
X236090000Y-121035000D03*
D10*
X125282500Y-142625000D03*
D11*
X130362500Y-142625000D03*
D10*
X135442500Y-142625000D03*
D12*
X132902500Y-137545000D03*
X126552500Y-140085000D03*
D10*
X301495000Y-180725000D03*
D11*
X306575000Y-180725000D03*
D10*
X311655000Y-180725000D03*
D12*
X309115000Y-175645000D03*
X302765000Y-178185000D03*
D10*
X330070000Y-123575000D03*
D11*
X335150000Y-123575000D03*
D10*
X340230000Y-123575000D03*
D12*
X337690000Y-118495000D03*
X331340000Y-121035000D03*
D10*
X363407500Y-161675000D03*
D11*
X368487500Y-161675000D03*
D10*
X373567500Y-161675000D03*
D12*
X371027500Y-156595000D03*
X364677500Y-159135000D03*
D16*
X388500000Y-157500000D03*
D17*
X393580000Y-157500000D03*
D10*
X244345000Y-104525000D03*
D11*
X249425000Y-104525000D03*
D10*
X254505000Y-104525000D03*
D12*
X251965000Y-99445000D03*
X245615000Y-101985000D03*
D10*
X163382500Y-142625000D03*
D11*
X168462500Y-142625000D03*
D10*
X173542500Y-142625000D03*
D12*
X171002500Y-137545000D03*
X164652500Y-140085000D03*
D10*
X110995000Y-104525000D03*
D11*
X116075000Y-104525000D03*
D10*
X121155000Y-104525000D03*
D12*
X118615000Y-99445000D03*
X112265000Y-101985000D03*
D10*
X322926250Y-180725000D03*
D11*
X328006250Y-180725000D03*
D10*
X333086250Y-180725000D03*
D12*
X330546250Y-175645000D03*
X324196250Y-178185000D03*
D10*
X118138750Y-180725000D03*
D11*
X123218750Y-180725000D03*
D10*
X128298750Y-180725000D03*
D12*
X125758750Y-175645000D03*
X119408750Y-178185000D03*
D10*
X149095000Y-104525000D03*
D11*
X154175000Y-104525000D03*
D10*
X159255000Y-104525000D03*
D12*
X156715000Y-99445000D03*
X150365000Y-101985000D03*
D10*
X277682500Y-142625000D03*
D11*
X282762500Y-142625000D03*
D10*
X287842500Y-142625000D03*
D12*
X285302500Y-137545000D03*
X278952500Y-140085000D03*
D18*
X385000000Y-116000000D03*
D19*
X390000000Y-116000000D03*
X387500000Y-116000000D03*
D20*
X381900000Y-108500000D03*
X393100000Y-108500000D03*
D19*
X390000000Y-101500000D03*
X385000000Y-101500000D03*
D10*
X225295000Y-104525000D03*
D11*
X230375000Y-104525000D03*
D10*
X235455000Y-104525000D03*
D12*
X232915000Y-99445000D03*
X226565000Y-101985000D03*
D10*
X99088750Y-142625000D03*
D11*
X104168750Y-142625000D03*
D10*
X109248750Y-142625000D03*
D12*
X106708750Y-137545000D03*
X100358750Y-140085000D03*
D10*
X320545000Y-104525000D03*
D11*
X325625000Y-104525000D03*
D10*
X330705000Y-104525000D03*
D12*
X328165000Y-99445000D03*
X321815000Y-101985000D03*
D10*
X94326250Y-180725000D03*
D11*
X99406250Y-180725000D03*
D10*
X104486250Y-180725000D03*
D12*
X101946250Y-175645000D03*
X95596250Y-178185000D03*
D10*
X206245000Y-104525000D03*
D11*
X211325000Y-104525000D03*
D10*
X216405000Y-104525000D03*
D12*
X213865000Y-99445000D03*
X207515000Y-101985000D03*
D10*
X291970000Y-123575000D03*
D11*
X297050000Y-123575000D03*
D10*
X302130000Y-123575000D03*
D12*
X299590000Y-118495000D03*
X293240000Y-121035000D03*
D10*
X182432500Y-142625000D03*
D11*
X187512500Y-142625000D03*
D10*
X192592500Y-142625000D03*
D12*
X190052500Y-137545000D03*
X183702500Y-140085000D03*
D10*
X220532500Y-142625000D03*
D11*
X225612500Y-142625000D03*
D10*
X230692500Y-142625000D03*
D12*
X228152500Y-137545000D03*
X221802500Y-140085000D03*
D10*
X382457500Y-180725000D03*
D11*
X387537500Y-180725000D03*
D10*
X392617500Y-180725000D03*
D12*
X390077500Y-175645000D03*
X383727500Y-178185000D03*
D10*
X134807500Y-161675000D03*
D11*
X139887500Y-161675000D03*
D10*
X144967500Y-161675000D03*
D12*
X142427500Y-156595000D03*
X136077500Y-159135000D03*
D10*
X91945000Y-104525000D03*
D11*
X97025000Y-104525000D03*
D10*
X102105000Y-104525000D03*
D12*
X99565000Y-99445000D03*
X93215000Y-101985000D03*
D13*
X168469000Y-173725000D03*
D11*
X168469000Y-188965000D03*
D10*
X213389000Y-180725000D03*
D11*
X218469000Y-180725000D03*
D10*
X223549000Y-180725000D03*
D13*
X268469000Y-173725000D03*
D11*
X268469000Y-188965000D03*
D12*
X221009000Y-175645000D03*
X214659000Y-178185000D03*
D10*
X168145000Y-104525000D03*
D11*
X173225000Y-104525000D03*
D10*
X178305000Y-104525000D03*
D12*
X175765000Y-99445000D03*
X169415000Y-101985000D03*
D10*
X172907500Y-161675000D03*
D11*
X177987500Y-161675000D03*
D10*
X183067500Y-161675000D03*
D12*
X180527500Y-156595000D03*
X174177500Y-159135000D03*
D16*
X386600000Y-157500000D03*
D17*
X381520000Y-157500000D03*
D13*
X328012500Y-154675000D03*
D11*
X328012500Y-169915000D03*
D10*
X334832500Y-161675000D03*
D11*
X339912500Y-161675000D03*
D10*
X344992500Y-161675000D03*
D13*
X351812500Y-154675000D03*
D11*
X351812500Y-169915000D03*
D12*
X342452500Y-156595000D03*
X336102500Y-159135000D03*
D10*
X239582500Y-142625000D03*
D11*
X244662500Y-142625000D03*
D10*
X249742500Y-142625000D03*
D12*
X247202500Y-137545000D03*
X240852500Y-140085000D03*
D10*
X139570000Y-123575000D03*
D11*
X144650000Y-123575000D03*
D10*
X149730000Y-123575000D03*
D12*
X147190000Y-118495000D03*
X140840000Y-121035000D03*
D21*
X330387500Y-147705000D03*
D22*
X330387500Y-140085000D03*
D21*
X292287500Y-147705000D03*
D22*
X292287500Y-140085000D03*
D21*
X149412500Y-166755000D03*
D22*
X149412500Y-159135000D03*
D21*
X135125000Y-185805000D03*
D22*
X135125000Y-178185000D03*
D21*
X358962500Y-185805000D03*
D22*
X358962500Y-178185000D03*
D21*
X371650000Y-117810000D03*
D22*
X371650000Y-110190000D03*
D21*
X306575000Y-128655000D03*
D22*
X306575000Y-121035000D03*
D21*
X268475000Y-128655000D03*
D22*
X268475000Y-121035000D03*
D21*
X106550000Y-109605000D03*
D22*
X106550000Y-101985000D03*
D21*
X173225000Y-128655000D03*
D22*
X173225000Y-121035000D03*
D21*
X125600000Y-109605000D03*
D22*
X125600000Y-101985000D03*
D21*
X339912500Y-185805000D03*
D22*
X339912500Y-178185000D03*
D21*
X254187500Y-147705000D03*
D22*
X254187500Y-140085000D03*
D21*
X397062500Y-185805000D03*
D22*
X397062500Y-178185000D03*
D21*
X278000000Y-109605000D03*
D22*
X278000000Y-101985000D03*
D23*
X396427500Y-96480000D03*
D24*
X396427500Y-99020000D03*
D25*
X396427500Y-101560000D03*
D24*
X396427500Y-104100000D03*
X396427500Y-106640000D03*
X396427500Y-109180000D03*
X396427500Y-111720000D03*
D25*
X396427500Y-114260000D03*
D24*
X396427500Y-116800000D03*
X396427500Y-119340000D03*
X396427500Y-121880000D03*
X396427500Y-124420000D03*
D25*
X396427500Y-126960000D03*
D24*
X396427500Y-129500000D03*
X396427500Y-132040000D03*
X396427500Y-134580000D03*
X396427500Y-137120000D03*
D25*
X396427500Y-139660000D03*
D24*
X396427500Y-142200000D03*
X396427500Y-144740000D03*
X378647500Y-144740000D03*
X378647500Y-142200000D03*
D26*
X378647500Y-139660000D03*
D24*
X378647500Y-137120000D03*
X378647500Y-134580000D03*
X378647500Y-132040000D03*
X378647500Y-129500000D03*
D26*
X378647500Y-126960000D03*
D24*
X378647500Y-124420000D03*
X378647500Y-121880000D03*
X378647500Y-119340000D03*
X378647500Y-116800000D03*
D26*
X378647500Y-114260000D03*
D24*
X378647500Y-111720000D03*
X378647500Y-109180000D03*
X378647500Y-106640000D03*
X378647500Y-104100000D03*
D26*
X378647500Y-101560000D03*
D24*
X378647500Y-99020000D03*
X378647500Y-96480000D03*
D21*
X144650000Y-109605000D03*
D22*
X144650000Y-101985000D03*
D21*
X335150000Y-109605000D03*
D22*
X335150000Y-101985000D03*
D21*
X187512500Y-166755000D03*
D22*
X187512500Y-159135000D03*
D21*
X344675000Y-128655000D03*
D22*
X344675000Y-121035000D03*
D21*
X177987500Y-147705000D03*
D22*
X177987500Y-140085000D03*
D21*
X154175000Y-128655000D03*
D22*
X154175000Y-121035000D03*
D21*
X216087500Y-147705000D03*
D22*
X216087500Y-140085000D03*
D21*
X378012500Y-185805000D03*
D22*
X378012500Y-178185000D03*
D21*
X230375000Y-128655000D03*
D22*
X230375000Y-121035000D03*
D21*
X201800000Y-109605000D03*
D22*
X201800000Y-101985000D03*
D21*
X168462500Y-166755000D03*
D22*
X168462500Y-159135000D03*
D21*
X297050000Y-185805000D03*
D22*
X297050000Y-178185000D03*
D21*
X325625000Y-128655000D03*
D22*
X325625000Y-121035000D03*
D21*
X258950000Y-109605000D03*
D22*
X258950000Y-101985000D03*
D21*
X358962500Y-166755000D03*
D22*
X358962500Y-159135000D03*
D21*
X244662500Y-166755000D03*
D22*
X244662500Y-159135000D03*
D21*
X273237500Y-147705000D03*
D22*
X273237500Y-140085000D03*
D21*
X263712500Y-166755000D03*
D22*
X263712500Y-159135000D03*
D21*
X130362500Y-166755000D03*
D22*
X130362500Y-159135000D03*
D21*
X297050000Y-109605000D03*
D22*
X297050000Y-101985000D03*
D21*
X182750000Y-109605000D03*
D22*
X182750000Y-101985000D03*
D21*
X225612500Y-166755000D03*
D22*
X225612500Y-159135000D03*
D21*
X371650000Y-106965000D03*
D22*
X371650000Y-99345000D03*
D21*
X120837500Y-147705000D03*
D22*
X120837500Y-140085000D03*
D21*
X135125000Y-128655000D03*
D22*
X135125000Y-121035000D03*
D21*
X206562500Y-166755000D03*
D22*
X206562500Y-159135000D03*
D21*
X371650000Y-147705000D03*
D22*
X371650000Y-140085000D03*
D21*
X211325000Y-128655000D03*
D22*
X211325000Y-121035000D03*
D21*
X311337500Y-147705000D03*
D22*
X311337500Y-140085000D03*
D21*
X111312500Y-185805000D03*
D22*
X111312500Y-178185000D03*
D21*
X282762500Y-166755000D03*
D22*
X282762500Y-159135000D03*
D21*
X278000000Y-185805000D03*
D22*
X278000000Y-178185000D03*
D21*
X316100000Y-109605000D03*
D22*
X316100000Y-101985000D03*
D21*
X235137500Y-147705000D03*
D22*
X235137500Y-140085000D03*
D21*
X320862500Y-166755000D03*
D22*
X320862500Y-159135000D03*
D21*
X378012500Y-166755000D03*
D22*
X378012500Y-159135000D03*
D21*
X371649500Y-128655000D03*
D22*
X371649500Y-121035000D03*
D21*
X220850000Y-109605000D03*
D22*
X220850000Y-101985000D03*
D21*
X239900000Y-109605000D03*
D22*
X239900000Y-101985000D03*
D21*
X158937500Y-147705000D03*
D22*
X158937500Y-140085000D03*
D21*
X116075000Y-128655000D03*
D22*
X116075000Y-121035000D03*
D21*
X249425000Y-128655000D03*
D22*
X249425000Y-121035000D03*
D21*
X163700000Y-109605000D03*
D22*
X163700000Y-101985000D03*
D21*
X197037500Y-147705000D03*
D22*
X197037500Y-140085000D03*
D21*
X192275000Y-128655000D03*
D22*
X192275000Y-121035000D03*
D21*
X301812500Y-166755000D03*
D22*
X301812500Y-159135000D03*
D21*
X316100000Y-185805000D03*
D22*
X316100000Y-178185000D03*
D21*
X139887500Y-147705000D03*
D22*
X139887500Y-140085000D03*
D21*
X287525000Y-128655000D03*
D22*
X287525000Y-121035000D03*
D21*
X158937500Y-185805000D03*
D22*
X158937500Y-178185000D03*
M02*
