G04 #@! TF.GenerationSoftware,KiCad,Pcbnew,8.0.5*
G04 #@! TF.CreationDate,2025-03-18T10:54:49-07:00*
G04 #@! TF.ProjectId,keyboard,6b657962-6f61-4726-942e-6b696361645f,rev?*
G04 #@! TF.SameCoordinates,Original*
G04 #@! TF.FileFunction,Copper,L2,Bot*
G04 #@! TF.FilePolarity,Positive*
%FSLAX46Y46*%
G04 Gerber Fmt 4.6, Leading zero omitted, Abs format (unit mm)*
G04 Created by KiCad (PCBNEW 8.0.5) date 2025-03-18 10:54:49*
%MOMM*%
%LPD*%
G01*
G04 APERTURE LIST*
G04 Aperture macros list*
%AMRoundRect*
0 Rectangle with rounded corners*
0 $1 Rounding radius*
0 $2 $3 $4 $5 $6 $7 $8 $9 X,Y pos of 4 corners*
0 Add a 4 corners polygon primitive as box body*
4,1,4,$2,$3,$4,$5,$6,$7,$8,$9,$2,$3,0*
0 Add four circle primitives for the rounded corners*
1,1,$1+$1,$2,$3*
1,1,$1+$1,$4,$5*
1,1,$1+$1,$6,$7*
1,1,$1+$1,$8,$9*
0 Add four rect primitives between the rounded corners*
20,1,$1+$1,$2,$3,$4,$5,0*
20,1,$1+$1,$4,$5,$6,$7,0*
20,1,$1+$1,$6,$7,$8,$9,0*
20,1,$1+$1,$8,$9,$2,$3,0*%
%AMFreePoly0*
4,1,28,0.605014,0.794986,0.644504,0.794986,0.724698,0.756366,0.780194,0.686777,0.800000,0.600000,0.800000,-0.600000,0.780194,-0.686777,0.724698,-0.756366,0.644504,-0.794986,0.605014,-0.794986,0.600000,-0.800000,0.000000,-0.800000,-0.178017,-0.779942,-0.347107,-0.720775,-0.498792,-0.625465,-0.625465,-0.498792,-0.720775,-0.347107,-0.779942,-0.178017,-0.800000,0.000000,-0.779942,0.178017,
-0.720775,0.347107,-0.625465,0.498792,-0.498792,0.625465,-0.347107,0.720775,-0.178017,0.779942,0.000000,0.800000,0.600000,0.800000,0.605014,0.794986,0.605014,0.794986,$1*%
%AMFreePoly1*
4,1,28,0.178017,0.779942,0.347107,0.720775,0.498792,0.625465,0.625465,0.498792,0.720775,0.347107,0.779942,0.178017,0.800000,0.000000,0.779942,-0.178017,0.720775,-0.347107,0.625465,-0.498792,0.498792,-0.625465,0.347107,-0.720775,0.178017,-0.779942,0.000000,-0.800000,-0.600000,-0.800000,-0.605014,-0.794986,-0.644504,-0.794986,-0.724698,-0.756366,-0.780194,-0.686777,-0.800000,-0.600000,
-0.800000,0.600000,-0.780194,0.686777,-0.724698,0.756366,-0.644504,0.794986,-0.605014,0.794986,-0.600000,0.800000,0.000000,0.800000,0.178017,0.779942,0.178017,0.779942,$1*%
G04 Aperture macros list end*
G04 #@! TA.AperFunction,ComponentPad*
%ADD10C,2.200000*%
G04 #@! TD*
G04 #@! TA.AperFunction,ComponentPad*
%ADD11R,1.700000X1.700000*%
G04 #@! TD*
G04 #@! TA.AperFunction,ComponentPad*
%ADD12O,1.700000X1.700000*%
G04 #@! TD*
G04 #@! TA.AperFunction,ComponentPad*
%ADD13C,1.400000*%
G04 #@! TD*
G04 #@! TA.AperFunction,ComponentPad*
%ADD14O,1.400000X1.400000*%
G04 #@! TD*
G04 #@! TA.AperFunction,ComponentPad*
%ADD15R,2.000000X2.000000*%
G04 #@! TD*
G04 #@! TA.AperFunction,ComponentPad*
%ADD16C,2.000000*%
G04 #@! TD*
G04 #@! TA.AperFunction,ComponentPad*
%ADD17R,2.000000X3.200000*%
G04 #@! TD*
G04 #@! TA.AperFunction,ComponentPad*
%ADD18R,1.800000X1.800000*%
G04 #@! TD*
G04 #@! TA.AperFunction,ComponentPad*
%ADD19O,1.800000X1.800000*%
G04 #@! TD*
G04 #@! TA.AperFunction,ComponentPad*
%ADD20RoundRect,0.200000X0.600000X0.600000X-0.600000X0.600000X-0.600000X-0.600000X0.600000X-0.600000X0*%
G04 #@! TD*
G04 #@! TA.AperFunction,ComponentPad*
%ADD21C,1.600000*%
G04 #@! TD*
G04 #@! TA.AperFunction,ComponentPad*
%ADD22FreePoly0,180.000000*%
G04 #@! TD*
G04 #@! TA.AperFunction,ComponentPad*
%ADD23FreePoly1,180.000000*%
G04 #@! TD*
G04 #@! TA.AperFunction,Conductor*
%ADD24C,0.250000*%
G04 #@! TD*
G04 APERTURE END LIST*
D10*
X323402500Y-137545000D03*
X317052500Y-140085000D03*
X218627500Y-156595000D03*
X212277500Y-159135000D03*
X356740000Y-99445000D03*
X350390000Y-101985000D03*
X199577500Y-156595000D03*
X193227500Y-159135000D03*
X266252500Y-137545000D03*
X259902500Y-140085000D03*
X194815000Y-99445000D03*
X188465000Y-101985000D03*
X318640000Y-118495000D03*
X312290000Y-121035000D03*
X237677500Y-156595000D03*
X231327500Y-159135000D03*
X271015000Y-99445000D03*
X264665000Y-101985000D03*
X304352500Y-137545000D03*
X298002500Y-140085000D03*
X309115000Y-99445000D03*
X302765000Y-101985000D03*
X111471250Y-156595000D03*
X105121250Y-159135000D03*
X204340000Y-118495000D03*
X197990000Y-121035000D03*
X275777500Y-156595000D03*
X269427500Y-159135000D03*
X104327500Y-118495000D03*
X97977500Y-121035000D03*
X354358750Y-137545000D03*
X348008750Y-140085000D03*
X161477500Y-156595000D03*
X155127500Y-159135000D03*
X290065000Y-99445000D03*
X283715000Y-101985000D03*
X313877500Y-156595000D03*
X307527500Y-159135000D03*
X209102500Y-137545000D03*
X202752500Y-140085000D03*
X256727500Y-156595000D03*
X250377500Y-159135000D03*
X290065000Y-175645000D03*
X283715000Y-178185000D03*
X185290000Y-118495000D03*
X178940000Y-121035000D03*
X149571250Y-175645000D03*
X143221250Y-178185000D03*
X223390000Y-118495000D03*
X217040000Y-121035000D03*
X351977500Y-175645000D03*
X345627500Y-178185000D03*
X280540000Y-118495000D03*
X274190000Y-121035000D03*
X371027500Y-175645000D03*
X364677500Y-178185000D03*
X294827500Y-156595000D03*
X288477500Y-159135000D03*
D11*
X383712500Y-160500000D03*
D12*
X386252500Y-160500000D03*
X388792500Y-160500000D03*
X391332500Y-160500000D03*
D10*
X128140000Y-118495000D03*
X121790000Y-121035000D03*
X261490000Y-118495000D03*
X255140000Y-121035000D03*
X166240000Y-118495000D03*
X159890000Y-121035000D03*
X137665000Y-99445000D03*
X131315000Y-101985000D03*
X151952500Y-137545000D03*
X145602500Y-140085000D03*
X361502500Y-118495000D03*
X355152500Y-121035000D03*
X242440000Y-118495000D03*
X236090000Y-121035000D03*
X132902500Y-137545000D03*
X126552500Y-140085000D03*
X309115000Y-175645000D03*
X302765000Y-178185000D03*
X337690000Y-118495000D03*
X331340000Y-121035000D03*
X371027500Y-156595000D03*
X364677500Y-159135000D03*
D13*
X388500000Y-157500000D03*
D14*
X393580000Y-157500000D03*
D10*
X251965000Y-99445000D03*
X245615000Y-101985000D03*
X171002500Y-137545000D03*
X164652500Y-140085000D03*
X118615000Y-99445000D03*
X112265000Y-101985000D03*
X330546250Y-175645000D03*
X324196250Y-178185000D03*
X125758750Y-175645000D03*
X119408750Y-178185000D03*
X156715000Y-99445000D03*
X150365000Y-101985000D03*
X285302500Y-137545000D03*
X278952500Y-140085000D03*
D15*
X385000000Y-116000000D03*
D16*
X390000000Y-116000000D03*
X387500000Y-116000000D03*
D17*
X381900000Y-108500000D03*
X393100000Y-108500000D03*
D16*
X390000000Y-101500000D03*
X385000000Y-101500000D03*
D10*
X232915000Y-99445000D03*
X226565000Y-101985000D03*
X106708750Y-137545000D03*
X100358750Y-140085000D03*
X328165000Y-99445000D03*
X321815000Y-101985000D03*
X101946250Y-175645000D03*
X95596250Y-178185000D03*
X213865000Y-99445000D03*
X207515000Y-101985000D03*
X299590000Y-118495000D03*
X293240000Y-121035000D03*
X190052500Y-137545000D03*
X183702500Y-140085000D03*
X228152500Y-137545000D03*
X221802500Y-140085000D03*
X390077500Y-175645000D03*
X383727500Y-178185000D03*
X142427500Y-156595000D03*
X136077500Y-159135000D03*
X99565000Y-99445000D03*
X93215000Y-101985000D03*
X221009000Y-175645000D03*
X214659000Y-178185000D03*
X175765000Y-99445000D03*
X169415000Y-101985000D03*
X180527500Y-156595000D03*
X174177500Y-159135000D03*
D13*
X386600000Y-157500000D03*
D14*
X381520000Y-157500000D03*
D10*
X342452500Y-156595000D03*
X336102500Y-159135000D03*
X247202500Y-137545000D03*
X240852500Y-140085000D03*
X147190000Y-118495000D03*
X140840000Y-121035000D03*
D18*
X330387500Y-147705000D03*
D19*
X330387500Y-140085000D03*
D18*
X292287500Y-147705000D03*
D19*
X292287500Y-140085000D03*
D18*
X149412500Y-166755000D03*
D19*
X149412500Y-159135000D03*
D18*
X135125000Y-185805000D03*
D19*
X135125000Y-178185000D03*
D18*
X358962500Y-185805000D03*
D19*
X358962500Y-178185000D03*
D18*
X371650000Y-117810000D03*
D19*
X371650000Y-110190000D03*
D18*
X306575000Y-128655000D03*
D19*
X306575000Y-121035000D03*
D18*
X268475000Y-128655000D03*
D19*
X268475000Y-121035000D03*
D18*
X106550000Y-109605000D03*
D19*
X106550000Y-101985000D03*
D18*
X173225000Y-128655000D03*
D19*
X173225000Y-121035000D03*
D18*
X125600000Y-109605000D03*
D19*
X125600000Y-101985000D03*
D18*
X339912500Y-185805000D03*
D19*
X339912500Y-178185000D03*
D18*
X254187500Y-147705000D03*
D19*
X254187500Y-140085000D03*
D18*
X397062500Y-185805000D03*
D19*
X397062500Y-178185000D03*
D18*
X278000000Y-109605000D03*
D19*
X278000000Y-101985000D03*
D20*
X396427500Y-96480000D03*
D21*
X396427500Y-99020000D03*
D22*
X396427500Y-101560000D03*
D21*
X396427500Y-104100000D03*
X396427500Y-106640000D03*
X396427500Y-109180000D03*
X396427500Y-111720000D03*
D22*
X396427500Y-114260000D03*
D21*
X396427500Y-116800000D03*
X396427500Y-119340000D03*
X396427500Y-121880000D03*
X396427500Y-124420000D03*
D22*
X396427500Y-126960000D03*
D21*
X396427500Y-129500000D03*
X396427500Y-132040000D03*
X396427500Y-134580000D03*
X396427500Y-137120000D03*
D22*
X396427500Y-139660000D03*
D21*
X396427500Y-142200000D03*
X396427500Y-144740000D03*
X378647500Y-144740000D03*
X378647500Y-142200000D03*
D23*
X378647500Y-139660000D03*
D21*
X378647500Y-137120000D03*
X378647500Y-134580000D03*
X378647500Y-132040000D03*
X378647500Y-129500000D03*
D23*
X378647500Y-126960000D03*
D21*
X378647500Y-124420000D03*
X378647500Y-121880000D03*
X378647500Y-119340000D03*
X378647500Y-116800000D03*
D23*
X378647500Y-114260000D03*
D21*
X378647500Y-111720000D03*
X378647500Y-109180000D03*
X378647500Y-106640000D03*
X378647500Y-104100000D03*
D23*
X378647500Y-101560000D03*
D21*
X378647500Y-99020000D03*
X378647500Y-96480000D03*
D18*
X144650000Y-109605000D03*
D19*
X144650000Y-101985000D03*
D18*
X335150000Y-109605000D03*
D19*
X335150000Y-101985000D03*
D18*
X187512500Y-166755000D03*
D19*
X187512500Y-159135000D03*
D18*
X344675000Y-128655000D03*
D19*
X344675000Y-121035000D03*
D18*
X177987500Y-147705000D03*
D19*
X177987500Y-140085000D03*
D18*
X154175000Y-128655000D03*
D19*
X154175000Y-121035000D03*
D18*
X216087500Y-147705000D03*
D19*
X216087500Y-140085000D03*
D18*
X378012500Y-185805000D03*
D19*
X378012500Y-178185000D03*
D18*
X230375000Y-128655000D03*
D19*
X230375000Y-121035000D03*
D18*
X201800000Y-109605000D03*
D19*
X201800000Y-101985000D03*
D18*
X168462500Y-166755000D03*
D19*
X168462500Y-159135000D03*
D18*
X297050000Y-185805000D03*
D19*
X297050000Y-178185000D03*
D18*
X325625000Y-128655000D03*
D19*
X325625000Y-121035000D03*
D18*
X258950000Y-109605000D03*
D19*
X258950000Y-101985000D03*
D18*
X358962500Y-166755000D03*
D19*
X358962500Y-159135000D03*
D18*
X244662500Y-166755000D03*
D19*
X244662500Y-159135000D03*
D18*
X273237500Y-147705000D03*
D19*
X273237500Y-140085000D03*
D18*
X263712500Y-166755000D03*
D19*
X263712500Y-159135000D03*
D18*
X130362500Y-166755000D03*
D19*
X130362500Y-159135000D03*
D18*
X297050000Y-109605000D03*
D19*
X297050000Y-101985000D03*
D18*
X182750000Y-109605000D03*
D19*
X182750000Y-101985000D03*
D18*
X225612500Y-166755000D03*
D19*
X225612500Y-159135000D03*
D18*
X371650000Y-106965000D03*
D19*
X371650000Y-99345000D03*
D18*
X120837500Y-147705000D03*
D19*
X120837500Y-140085000D03*
D18*
X135125000Y-128655000D03*
D19*
X135125000Y-121035000D03*
D18*
X206562500Y-166755000D03*
D19*
X206562500Y-159135000D03*
D18*
X371650000Y-147705000D03*
D19*
X371650000Y-140085000D03*
D18*
X211325000Y-128655000D03*
D19*
X211325000Y-121035000D03*
D18*
X311337500Y-147705000D03*
D19*
X311337500Y-140085000D03*
D18*
X111312500Y-185805000D03*
D19*
X111312500Y-178185000D03*
D18*
X282762500Y-166755000D03*
D19*
X282762500Y-159135000D03*
D18*
X278000000Y-185805000D03*
D19*
X278000000Y-178185000D03*
D18*
X316100000Y-109605000D03*
D19*
X316100000Y-101985000D03*
D18*
X235137500Y-147705000D03*
D19*
X235137500Y-140085000D03*
D18*
X320862500Y-166755000D03*
D19*
X320862500Y-159135000D03*
D18*
X378012500Y-166755000D03*
D19*
X378012500Y-159135000D03*
D18*
X371649500Y-128655000D03*
D19*
X371649500Y-121035000D03*
D18*
X220850000Y-109605000D03*
D19*
X220850000Y-101985000D03*
D18*
X239900000Y-109605000D03*
D19*
X239900000Y-101985000D03*
D18*
X158937500Y-147705000D03*
D19*
X158937500Y-140085000D03*
D18*
X116075000Y-128655000D03*
D19*
X116075000Y-121035000D03*
D18*
X249425000Y-128655000D03*
D19*
X249425000Y-121035000D03*
D18*
X163700000Y-109605000D03*
D19*
X163700000Y-101985000D03*
D18*
X197037500Y-147705000D03*
D19*
X197037500Y-140085000D03*
D18*
X192275000Y-128655000D03*
D19*
X192275000Y-121035000D03*
D18*
X301812500Y-166755000D03*
D19*
X301812500Y-159135000D03*
D18*
X316100000Y-185805000D03*
D19*
X316100000Y-178185000D03*
D18*
X139887500Y-147705000D03*
D19*
X139887500Y-140085000D03*
D18*
X287525000Y-128655000D03*
D19*
X287525000Y-121035000D03*
D18*
X158937500Y-185805000D03*
D19*
X158937500Y-178185000D03*
D24*
X377430000Y-127430000D02*
X378095031Y-128095031D01*
X114850000Y-129850000D02*
X114850000Y-127430000D01*
X115000000Y-130000000D02*
X114850000Y-129850000D01*
X396427500Y-111983833D02*
X396427500Y-111720000D01*
X378095031Y-128095031D02*
X397904969Y-128095031D01*
X398500000Y-127500000D02*
X398500000Y-113792500D01*
X106708750Y-137545000D02*
X114253750Y-130000000D01*
X397904969Y-128095031D02*
X398500000Y-127500000D01*
X114850000Y-127430000D02*
X377430000Y-127430000D01*
X114253750Y-130000000D02*
X115000000Y-130000000D01*
X398500000Y-113792500D02*
X396427500Y-111720000D01*
X284822245Y-157495000D02*
X289912500Y-162585255D01*
X292753743Y-165500000D02*
X390500000Y-165500000D01*
X256137245Y-158020000D02*
X257317755Y-158020000D01*
X390500000Y-165500000D02*
X398500000Y-157500000D01*
X277529151Y-157495000D02*
X284822245Y-157495000D01*
X275000849Y-158470000D02*
X276554151Y-158470000D01*
X398500000Y-136652500D02*
X396427500Y-134580000D01*
X237677500Y-156595000D02*
X254712245Y-156595000D01*
X258292755Y-157045000D02*
X273575849Y-157045000D01*
X254712245Y-156595000D02*
X256137245Y-158020000D01*
X276554151Y-158470000D02*
X277529151Y-157495000D01*
X257317755Y-158020000D02*
X258292755Y-157045000D01*
X398500000Y-157500000D02*
X398500000Y-136652500D01*
X289912500Y-162585255D02*
X289912500Y-162658757D01*
X289912500Y-162658757D02*
X292753743Y-165500000D01*
X273575849Y-157045000D02*
X275000849Y-158470000D01*
X277342755Y-157045000D02*
X292625849Y-157045000D01*
X315862792Y-157910000D02*
X328062296Y-157910000D01*
X296579151Y-157495000D02*
X311489453Y-157495000D01*
X292625849Y-157045000D02*
X294050849Y-158470000D01*
X335152296Y-165000000D02*
X390363604Y-165000000D01*
X256727500Y-156595000D02*
X273762245Y-156595000D01*
X328062296Y-157910000D02*
X335152296Y-165000000D01*
X294050849Y-158470000D02*
X295604151Y-158470000D01*
X390363604Y-165000000D02*
X398002500Y-157361104D01*
X295604151Y-158470000D02*
X296579151Y-157495000D01*
X276367755Y-158020000D02*
X277342755Y-157045000D01*
X398002500Y-138695000D02*
X396427500Y-137120000D01*
X312944453Y-158950000D02*
X314822792Y-158950000D01*
X311489453Y-157495000D02*
X312944453Y-158950000D01*
X275187245Y-158020000D02*
X276367755Y-158020000D01*
X314822792Y-158950000D02*
X315862792Y-157910000D01*
X273762245Y-156595000D02*
X275187245Y-158020000D01*
X398002500Y-157361104D02*
X398002500Y-138695000D01*
X314636396Y-158500000D02*
X313130849Y-158500000D01*
X328248692Y-157460000D02*
X315676396Y-157460000D01*
X390227208Y-164500000D02*
X335288692Y-164500000D01*
X397552500Y-157174708D02*
X390227208Y-164500000D01*
X295417755Y-158020000D02*
X294237245Y-158020000D01*
X396427500Y-142200000D02*
X397552500Y-143325000D01*
X335288692Y-164500000D02*
X328248692Y-157460000D01*
X315676396Y-157460000D02*
X314636396Y-158500000D01*
X292812245Y-156595000D02*
X275777500Y-156595000D01*
X397552500Y-143325000D02*
X397552500Y-157174708D01*
X296392755Y-157045000D02*
X295417755Y-158020000D01*
X294237245Y-158020000D02*
X292812245Y-156595000D01*
X311675849Y-157045000D02*
X296392755Y-157045000D01*
X313130849Y-158500000D02*
X311675849Y-157045000D01*
X311862245Y-156595000D02*
X313287245Y-158020000D01*
X315490000Y-157010000D02*
X328435088Y-157010000D01*
X314480000Y-158020000D02*
X315490000Y-157010000D01*
X313287245Y-158020000D02*
X314480000Y-158020000D01*
X328435088Y-157010000D02*
X335475088Y-164050000D01*
X335475088Y-164050000D02*
X390040812Y-164050000D01*
X397102500Y-156988312D02*
X397102500Y-145415000D01*
X397102500Y-145415000D02*
X396427500Y-144740000D01*
X390040812Y-164050000D02*
X397102500Y-156988312D01*
X294827500Y-156595000D02*
X311862245Y-156595000D01*
X332345000Y-148155000D02*
X369345000Y-148155000D01*
X331500000Y-149000000D02*
X332345000Y-148155000D01*
X370120000Y-148930000D02*
X374457500Y-148930000D01*
X369345000Y-148155000D02*
X370120000Y-148930000D01*
X321472500Y-149000000D02*
X331500000Y-149000000D01*
X313877500Y-156595000D02*
X321472500Y-149000000D01*
X374457500Y-148930000D02*
X378647500Y-144740000D01*
X354358750Y-137545000D02*
X378222500Y-137545000D01*
X378222500Y-137545000D02*
X378647500Y-137120000D01*
X395302500Y-97605000D02*
X396427500Y-96480000D01*
X371650000Y-106965000D02*
X370425000Y-108190000D01*
X106550000Y-109605000D02*
X335150000Y-109605000D01*
X370425000Y-116585000D02*
X371650000Y-117810000D01*
X377895000Y-97605000D02*
X395302500Y-97605000D01*
X335150000Y-109605000D02*
X335395000Y-109605000D01*
X338035000Y-106965000D02*
X371650000Y-106965000D01*
X370425000Y-108190000D02*
X370425000Y-116585000D01*
X371650000Y-103850000D02*
X377895000Y-97605000D01*
X371650000Y-106965000D02*
X371650000Y-103850000D01*
X335395000Y-109605000D02*
X338035000Y-106965000D01*
X344675000Y-128655000D02*
X371649500Y-128655000D01*
X116075000Y-128655000D02*
X344675000Y-128655000D01*
X371650000Y-147705000D02*
X371650000Y-145059436D01*
X396893491Y-130625000D02*
X398950000Y-128568491D01*
X398950000Y-128568491D02*
X398950000Y-112338896D01*
X371650000Y-145059436D02*
X378209436Y-138500000D01*
X395302500Y-109645991D02*
X395302500Y-105225000D01*
X396916104Y-110305000D02*
X395961509Y-110305000D01*
X378209436Y-138500000D02*
X379370722Y-138500000D01*
X379370722Y-138500000D02*
X387245722Y-130625000D01*
X395302500Y-105225000D02*
X396427500Y-104100000D01*
X395961509Y-110305000D02*
X395302500Y-109645991D01*
X387245722Y-130625000D02*
X396893491Y-130625000D01*
X398950000Y-112338896D02*
X396916104Y-110305000D01*
X120837500Y-147705000D02*
X330387500Y-147705000D01*
X330387500Y-147705000D02*
X371650000Y-147705000D01*
X378012500Y-166755000D02*
X389881396Y-166755000D01*
X389881396Y-166755000D02*
X399400000Y-157236396D01*
X399400000Y-157236396D02*
X399400000Y-112152500D01*
X130362500Y-166755000D02*
X378012500Y-166755000D01*
X399400000Y-112152500D02*
X396427500Y-109180000D01*
X378012500Y-166755000D02*
X378000000Y-166742500D01*
X378000000Y-166742500D02*
X378000000Y-166500000D01*
X111507500Y-186000000D02*
X396867500Y-186000000D01*
X399850000Y-183017500D02*
X399850000Y-110062500D01*
X397062500Y-185805000D02*
X399850000Y-183017500D01*
X396867500Y-186000000D02*
X397062500Y-185805000D01*
X111312500Y-185805000D02*
X111507500Y-186000000D01*
X399850000Y-110062500D02*
X396427500Y-106640000D01*
X93215000Y-101985000D02*
X106550000Y-101985000D01*
X112265000Y-101985000D02*
X125600000Y-101985000D01*
X131315000Y-101985000D02*
X144650000Y-101985000D01*
X150365000Y-101985000D02*
X163700000Y-101985000D01*
X169415000Y-101985000D02*
X182750000Y-101985000D01*
X188465000Y-101985000D02*
X201800000Y-101985000D01*
X207515000Y-101985000D02*
X220850000Y-101985000D01*
X226565000Y-101985000D02*
X239900000Y-101985000D01*
X245615000Y-101985000D02*
X258950000Y-101985000D01*
X264665000Y-101985000D02*
X278000000Y-101985000D01*
X283715000Y-101985000D02*
X297050000Y-101985000D01*
X302765000Y-101985000D02*
X316100000Y-101985000D01*
X321815000Y-101985000D02*
X335150000Y-101985000D01*
X350390000Y-101985000D02*
X369010000Y-101985000D01*
X369010000Y-101985000D02*
X371650000Y-99345000D01*
X97977500Y-121035000D02*
X116075000Y-121035000D01*
X121790000Y-121035000D02*
X135125000Y-121035000D01*
X140840000Y-121035000D02*
X154175000Y-121035000D01*
X159890000Y-121035000D02*
X173225000Y-121035000D01*
X178940000Y-121035000D02*
X192275000Y-121035000D01*
X197990000Y-121035000D02*
X211325000Y-121035000D01*
X217040000Y-121035000D02*
X230375000Y-121035000D01*
X236090000Y-121035000D02*
X249425000Y-121035000D01*
X255140000Y-121035000D02*
X268475000Y-121035000D01*
X274190000Y-121035000D02*
X287525000Y-121035000D01*
X293240000Y-121035000D02*
X306575000Y-121035000D01*
X312290000Y-121035000D02*
X325625000Y-121035000D01*
X331340000Y-121035000D02*
X344675000Y-121035000D01*
X355152500Y-121035000D02*
X371649500Y-121035000D01*
X100358750Y-140085000D02*
X120837500Y-140085000D01*
X126552500Y-140085000D02*
X139887500Y-140085000D01*
X145602500Y-140085000D02*
X158937500Y-140085000D01*
X164652500Y-140085000D02*
X177987500Y-140085000D01*
X183702500Y-140085000D02*
X197037500Y-140085000D01*
X202752500Y-140085000D02*
X216087500Y-140085000D01*
X221802500Y-140085000D02*
X235137500Y-140085000D01*
X240852500Y-140085000D02*
X254187500Y-140085000D01*
X259902500Y-140085000D02*
X273237500Y-140085000D01*
X278952500Y-140085000D02*
X292287500Y-140085000D01*
X298002500Y-140085000D02*
X311337500Y-140085000D01*
X317052500Y-140085000D02*
X330387500Y-140085000D01*
X348008750Y-140085000D02*
X371650000Y-140085000D01*
X105121250Y-159135000D02*
X130362500Y-159135000D01*
X136077500Y-159135000D02*
X149412500Y-159135000D01*
X155127500Y-159135000D02*
X168462500Y-159135000D01*
X174177500Y-159135000D02*
X187512500Y-159135000D01*
X193227500Y-159135000D02*
X206562500Y-159135000D01*
X212277500Y-159135000D02*
X225612500Y-159135000D01*
X231327500Y-159135000D02*
X244662500Y-159135000D01*
X250377500Y-159135000D02*
X263712500Y-159135000D01*
X269427500Y-159135000D02*
X282762500Y-159135000D01*
X288477500Y-159135000D02*
X301812500Y-159135000D01*
X312493057Y-159135000D02*
X312758057Y-159400000D01*
X312758057Y-159400000D02*
X320597500Y-159400000D01*
X307527500Y-159135000D02*
X312493057Y-159135000D01*
X307527500Y-159135000D02*
X307892500Y-159500000D01*
X320497500Y-159500000D02*
X320862500Y-159135000D01*
X320597500Y-159400000D02*
X320862500Y-159135000D01*
X336102500Y-159135000D02*
X358962500Y-159135000D01*
X364677500Y-159135000D02*
X378012500Y-159135000D01*
X95596250Y-178185000D02*
X111312500Y-178185000D01*
X119408750Y-178185000D02*
X135125000Y-178185000D01*
X143221250Y-178185000D02*
X158937500Y-178185000D01*
X214659000Y-178185000D02*
X278000000Y-178185000D01*
X283715000Y-178185000D02*
X297050000Y-178185000D01*
X302765000Y-178185000D02*
X316100000Y-178185000D01*
X324196250Y-178185000D02*
X339912500Y-178185000D01*
X345627500Y-178185000D02*
X358962500Y-178185000D01*
X364677500Y-178185000D02*
X378012500Y-178185000D01*
X383727500Y-178185000D02*
X397062500Y-178185000D01*
X377000000Y-101500000D02*
X378355000Y-100145000D01*
X371650000Y-110190000D02*
X377000000Y-104840000D01*
X383645000Y-100145000D02*
X385000000Y-101500000D01*
X378355000Y-100145000D02*
X383645000Y-100145000D01*
X377000000Y-104840000D02*
X377000000Y-101500000D01*
X387500000Y-110412500D02*
X387500000Y-116000000D01*
X378647500Y-101560000D02*
X387500000Y-110412500D01*
X392954416Y-160500000D02*
X391332500Y-160500000D01*
X393580000Y-157500000D02*
X393580000Y-159874416D01*
X393580000Y-159874416D02*
X392954416Y-160500000D01*
X388500000Y-157500000D02*
X386600000Y-157500000D01*
X387914201Y-160500000D02*
X388792500Y-160500000D01*
X381520000Y-157500000D02*
X384914201Y-157500000D01*
X384914201Y-157500000D02*
X387914201Y-160500000D01*
X378647500Y-124420000D02*
X383354937Y-124420000D01*
X390000000Y-117774937D02*
X390000000Y-116000000D01*
X383354937Y-124420000D02*
X390000000Y-117774937D01*
M02*
