M48
; DRILL file {KiCad 8.0.5} date 2025-03-18T10:54:58-0700
; FORMAT={-:-/ absolute / inch / decimal}
; #@! TF.CreationDate,2025-03-18T10:54:58-07:00
; #@! TF.GenerationSoftware,Kicad,Pcbnew,8.0.5
; #@! TF.FileFunction,Plated,1,2,PTH
FMAT,2
INCH
; #@! TA.AperFunction,Plated,PTH,ComponentDrill
T1C0.0276
; #@! TA.AperFunction,Plated,PTH,ComponentDrill
T2C0.0354
; #@! TA.AperFunction,Plated,PTH,ComponentDrill
T3C0.0394
; #@! TA.AperFunction,Plated,PTH,ComponentDrill
T4C0.0591
%
G90
G05
T1
X15.0205Y-6.2008
X15.2205Y-6.2008
X15.2953Y-6.2008
X15.4953Y-6.2008
T2
X4.1949Y-4.0152
X4.1949Y-4.3152
X4.3824Y-7.0152
X4.3824Y-7.3152
X4.5699Y-4.7652
X4.5699Y-5.0652
X4.7574Y-5.5152
X4.7574Y-5.8152
X4.9449Y-4.0152
X4.9449Y-4.3152
X5.1324Y-6.2652
X5.1324Y-6.5652
X5.3199Y-4.7652
X5.3199Y-5.0652
X5.3199Y-7.0152
X5.3199Y-7.3152
X5.5074Y-5.5152
X5.5074Y-5.8152
X5.6949Y-4.0152
X5.6949Y-4.3152
X5.8824Y-6.2652
X5.8824Y-6.5652
X6.0699Y-4.7652
X6.0699Y-5.0652
X6.2574Y-5.5152
X6.2574Y-5.8152
X6.2574Y-7.0152
X6.2574Y-7.3152
X6.4449Y-4.0152
X6.4449Y-4.3152
X6.6324Y-6.2652
X6.6324Y-6.5652
X6.8199Y-4.7652
X6.8199Y-5.0652
X7.0074Y-5.5152
X7.0074Y-5.8152
X7.1949Y-4.0152
X7.1949Y-4.3152
X7.3824Y-6.2652
X7.3824Y-6.5652
X7.5699Y-4.7652
X7.5699Y-5.0652
X7.7574Y-5.5152
X7.7574Y-5.8152
X7.9449Y-4.0152
X7.9449Y-4.3152
X8.1324Y-6.2652
X8.1324Y-6.5652
X8.3199Y-4.7652
X8.3199Y-5.0652
X8.5074Y-5.5152
X8.5074Y-5.8152
X8.6949Y-4.0152
X8.6949Y-4.3152
X8.8824Y-6.2652
X8.8824Y-6.5652
X9.0699Y-4.7652
X9.0699Y-5.0652
X9.2574Y-5.5152
X9.2574Y-5.8152
X9.4449Y-4.0152
X9.4449Y-4.3152
X9.6324Y-6.2652
X9.6324Y-6.5652
X9.8199Y-4.7652
X9.8199Y-5.0652
X10.0074Y-5.5152
X10.0074Y-5.8152
X10.1949Y-4.0152
X10.1949Y-4.3152
X10.3824Y-6.2652
X10.3824Y-6.5652
X10.5699Y-4.7652
X10.5699Y-5.0652
X10.7574Y-5.5152
X10.7574Y-5.8152
X10.9449Y-4.0152
X10.9449Y-4.3152
X10.9449Y-7.0152
X10.9449Y-7.3152
X11.1324Y-6.2652
X11.1324Y-6.5652
X11.3199Y-4.7652
X11.3199Y-5.0652
X11.5074Y-5.5152
X11.5074Y-5.8152
X11.6949Y-4.0152
X11.6949Y-4.3152
X11.6949Y-7.0152
X11.6949Y-7.3152
X11.8824Y-6.2652
X11.8824Y-6.5652
X12.0699Y-4.7652
X12.0699Y-5.0652
X12.2574Y-5.5152
X12.2574Y-5.8152
X12.4449Y-4.0152
X12.4449Y-4.3152
X12.4449Y-7.0152
X12.4449Y-7.3152
X12.6324Y-6.2652
X12.6324Y-6.5652
X12.8199Y-4.7652
X12.8199Y-5.0652
X13.0074Y-5.5152
X13.0074Y-5.8152
X13.1949Y-4.0152
X13.1949Y-4.3152
X13.3824Y-7.0152
X13.3824Y-7.3152
X13.5699Y-4.7652
X13.5699Y-5.0652
X14.1324Y-6.2652
X14.1324Y-6.5652
X14.1324Y-7.0152
X14.1324Y-7.3152
X14.6319Y-4.7652
X14.6319Y-5.0652
X14.6319Y-3.9112
X14.6319Y-4.2112
X14.6319Y-4.3382
X14.6319Y-4.6382
X14.6319Y-5.5152
X14.6319Y-5.8152
X14.8824Y-6.2652
X14.8824Y-6.5652
X14.8824Y-7.0152
X14.8824Y-7.3152
X15.6324Y-7.0152
X15.6324Y-7.3152
T3
X14.9074Y-3.7984
X14.9074Y-3.8984
X14.9074Y-3.9984
X14.9074Y-4.0984
X14.9074Y-4.1984
X14.9074Y-4.2984
X14.9074Y-4.3984
X14.9074Y-4.4984
X14.9074Y-4.5984
X14.9074Y-4.6984
X14.9074Y-4.7984
X14.9074Y-4.8984
X14.9074Y-4.9984
X14.9074Y-5.0984
X14.9074Y-5.1984
X14.9074Y-5.2984
X14.9074Y-5.3984
X14.9074Y-5.4984
X14.9074Y-5.5984
X14.9074Y-5.6984
X15.1068Y-6.3189
X15.1575Y-3.9961
X15.1575Y-4.5669
X15.2068Y-6.3189
X15.2559Y-4.5669
X15.3068Y-6.3189
X15.3543Y-3.9961
X15.3543Y-4.5669
X15.4068Y-6.3189
X15.6074Y-3.7984
X15.6074Y-3.8984
X15.6074Y-3.9984
X15.6074Y-4.0984
X15.6074Y-4.1984
X15.6074Y-4.2984
X15.6074Y-4.3984
X15.6074Y-4.4984
X15.6074Y-4.5984
X15.6074Y-4.6984
X15.6074Y-4.7984
X15.6074Y-4.8984
X15.6074Y-4.9984
X15.6074Y-5.0984
X15.6074Y-5.1984
X15.6074Y-5.2984
X15.6074Y-5.3984
X15.6074Y-5.4984
X15.6074Y-5.5984
X15.6074Y-5.6984
T4
X3.6699Y-4.0152
X3.7636Y-7.0152
X3.8574Y-4.7652
X3.9199Y-3.9152
X3.9511Y-5.5152
X4.0136Y-6.9152
X4.1074Y-4.6652
X4.1386Y-6.2652
X4.2011Y-5.4152
X4.3886Y-6.1652
X4.4199Y-4.0152
X4.6699Y-3.9152
X4.7011Y-7.0152
X4.7949Y-4.7652
X4.9511Y-6.9152
X4.9824Y-5.5152
X5.0449Y-4.6652
X5.1699Y-4.0152
X5.2324Y-5.4152
X5.3574Y-6.2652
X5.4199Y-3.9152
X5.5449Y-4.7652
X5.6074Y-6.1652
X5.6386Y-7.0152
X5.7324Y-5.5152
X5.7949Y-4.6652
X5.8886Y-6.9152
X5.9199Y-4.0152
X5.9824Y-5.4152
X6.1074Y-6.2652
X6.1699Y-3.9152
X6.2949Y-4.7652
X6.3574Y-6.1652
X6.4824Y-5.5152
X6.5449Y-4.6652
X6.6699Y-4.0152
X6.7324Y-5.4152
X6.8574Y-6.2652
X6.9199Y-3.9152
X7.0449Y-4.7652
X7.1074Y-6.1652
X7.2324Y-5.5152
X7.2949Y-4.6652
X7.4199Y-4.0152
X7.4824Y-5.4152
X7.6074Y-6.2652
X7.6699Y-3.9152
X7.7949Y-4.7652
X7.8574Y-6.1652
X7.9824Y-5.5152
X8.0449Y-4.6652
X8.1699Y-4.0152
X8.2324Y-5.4152
X8.3574Y-6.2652
X8.4199Y-3.9152
X8.4511Y-7.0152
X8.5449Y-4.7652
X8.6074Y-6.1652
X8.7011Y-6.9152
X8.7324Y-5.5152
X8.7949Y-4.6652
X8.9199Y-4.0152
X8.9824Y-5.4152
X9.1074Y-6.2652
X9.1699Y-3.9152
X9.2949Y-4.7652
X9.3574Y-6.1652
X9.4824Y-5.5152
X9.5449Y-4.6652
X9.6699Y-4.0152
X9.7324Y-5.4152
X9.8574Y-6.2652
X9.9199Y-3.9152
X10.0449Y-4.7652
X10.1074Y-6.1652
X10.2324Y-5.5152
X10.2949Y-4.6652
X10.4199Y-4.0152
X10.4824Y-5.4152
X10.6074Y-6.2652
X10.6699Y-3.9152
X10.7949Y-4.7652
X10.8574Y-6.1652
X10.9824Y-5.5152
X11.0449Y-4.6652
X11.1699Y-4.0152
X11.1699Y-7.0152
X11.2324Y-5.4152
X11.3574Y-6.2652
X11.4199Y-3.9152
X11.4199Y-6.9152
X11.5449Y-4.7652
X11.6074Y-6.1652
X11.7324Y-5.5152
X11.7949Y-4.6652
X11.9199Y-4.0152
X11.9199Y-7.0152
X11.9824Y-5.4152
X12.1074Y-6.2652
X12.1699Y-3.9152
X12.1699Y-6.9152
X12.2949Y-4.7652
X12.3574Y-6.1652
X12.4824Y-5.5152
X12.5449Y-4.6652
X12.6699Y-4.0152
X12.7324Y-5.4152
X12.7636Y-7.0152
X12.9199Y-3.9152
X13.0136Y-6.9152
X13.0449Y-4.7652
X13.2324Y-6.2652
X13.2949Y-4.6652
X13.4824Y-6.1652
X13.6074Y-7.0152
X13.7011Y-5.5152
X13.7949Y-4.0152
X13.8574Y-6.9152
X13.9511Y-5.4152
X13.9824Y-4.7652
X14.0449Y-3.9152
X14.2324Y-4.6652
X14.3574Y-6.2652
X14.3574Y-7.0152
X14.6074Y-6.1652
X14.6074Y-6.9152
X15.1074Y-7.0152
X15.3574Y-6.9152
T4
G00X15.0354Y-4.2972
M15
G01X15.0354Y-4.2461
M16
G05
G00X15.4764Y-4.2972
M15
G01X15.4764Y-4.2461
M16
G05
M30
