M48
; DRILL file {KiCad 8.0.5} date 2025-03-18T10:54:58-0700
; FORMAT={-:-/ absolute / inch / decimal}
; #@! TF.CreationDate,2025-03-18T10:54:58-07:00
; #@! TF.GenerationSoftware,Kicad,Pcbnew,8.0.5
; #@! TF.FileFunction,NonPlated,1,2,NPTH
FMAT,2
INCH
; #@! TA.AperFunction,NonPlated,NPTH,ComponentDrill
T1C0.0669
; #@! TA.AperFunction,NonPlated,NPTH,ComponentDrill
T2C0.1201
; #@! TA.AperFunction,NonPlated,NPTH,ComponentDrill
T3C0.1575
%
G90
G05
T1
X3.6199Y-4.1152
X3.7136Y-7.1152
X3.8074Y-4.8652
X3.9011Y-5.6152
X4.0199Y-4.1152
X4.0886Y-6.3652
X4.1136Y-7.1152
X4.2074Y-4.8652
X4.3011Y-5.6152
X4.3699Y-4.1152
X4.4886Y-6.3652
X4.6511Y-7.1152
X4.7449Y-4.8652
X4.7699Y-4.1152
X4.9324Y-5.6152
X5.0511Y-7.1152
X5.1199Y-4.1152
X5.1449Y-4.8652
X5.3074Y-6.3652
X5.3324Y-5.6152
X5.4949Y-4.8652
X5.5199Y-4.1152
X5.5886Y-7.1152
X5.6824Y-5.6152
X5.7074Y-6.3652
X5.8699Y-4.1152
X5.8949Y-4.8652
X5.9886Y-7.1152
X6.0574Y-6.3652
X6.0824Y-5.6152
X6.2449Y-4.8652
X6.2699Y-4.1152
X6.4324Y-5.6152
X6.4574Y-6.3652
X6.6199Y-4.1152
X6.6449Y-4.8652
X6.8074Y-6.3652
X6.8324Y-5.6152
X6.9949Y-4.8652
X7.0199Y-4.1152
X7.1824Y-5.6152
X7.2074Y-6.3652
X7.3699Y-4.1152
X7.3949Y-4.8652
X7.5574Y-6.3652
X7.5824Y-5.6152
X7.7449Y-4.8652
X7.7699Y-4.1152
X7.9324Y-5.6152
X7.9574Y-6.3652
X8.1199Y-4.1152
X8.1449Y-4.8652
X8.3074Y-6.3652
X8.3324Y-5.6152
X8.4011Y-7.1152
X8.4949Y-4.8652
X8.5199Y-4.1152
X8.6824Y-5.6152
X8.7074Y-6.3652
X8.8011Y-7.1152
X8.8699Y-4.1152
X8.8949Y-4.8652
X9.0574Y-6.3652
X9.0824Y-5.6152
X9.2449Y-4.8652
X9.2699Y-4.1152
X9.4324Y-5.6152
X9.4574Y-6.3652
X9.6199Y-4.1152
X9.6449Y-4.8652
X9.8074Y-6.3652
X9.8324Y-5.6152
X9.9949Y-4.8652
X10.0199Y-4.1152
X10.1824Y-5.6152
X10.2074Y-6.3652
X10.3699Y-4.1152
X10.3949Y-4.8652
X10.5574Y-6.3652
X10.5824Y-5.6152
X10.7449Y-4.8652
X10.7699Y-4.1152
X10.9324Y-5.6152
X10.9574Y-6.3652
X11.1199Y-4.1152
X11.1199Y-7.1152
X11.1449Y-4.8652
X11.3074Y-6.3652
X11.3324Y-5.6152
X11.4949Y-4.8652
X11.5199Y-4.1152
X11.5199Y-7.1152
X11.6824Y-5.6152
X11.7074Y-6.3652
X11.8699Y-4.1152
X11.8699Y-7.1152
X11.8949Y-4.8652
X12.0574Y-6.3652
X12.0824Y-5.6152
X12.2449Y-4.8652
X12.2699Y-4.1152
X12.2699Y-7.1152
X12.4324Y-5.6152
X12.4574Y-6.3652
X12.6199Y-4.1152
X12.6449Y-4.8652
X12.7136Y-7.1152
X12.8324Y-5.6152
X12.9949Y-4.8652
X13.0199Y-4.1152
X13.1136Y-7.1152
X13.1824Y-6.3652
X13.3949Y-4.8652
X13.5574Y-7.1152
X13.5824Y-6.3652
X13.6511Y-5.6152
X13.7449Y-4.1152
X13.9324Y-4.8652
X13.9574Y-7.1152
X14.0511Y-5.6152
X14.1449Y-4.1152
X14.3074Y-6.3652
X14.3074Y-7.1152
X14.3324Y-4.8652
X14.7074Y-6.3652
X14.7074Y-7.1152
X15.0574Y-7.1152
X15.4574Y-7.1152
T2
X3.8201Y-6.0896
X4.7571Y-6.0896
X6.6326Y-6.8396
X10.5696Y-6.8396
X12.9139Y-6.0896
X13.3826Y-5.3396
X13.4764Y-3.8396
X13.8509Y-6.0896
X14.3196Y-5.3396
X14.4134Y-3.8396
T3
X3.8199Y-4.1152
X3.8201Y-6.6896
X3.9136Y-7.1152
X4.0074Y-4.8652
X4.1011Y-5.6152
X4.2886Y-6.3652
X4.5699Y-4.1152
X4.7571Y-6.6896
X4.8511Y-7.1152
X4.9449Y-4.8652
X5.1324Y-5.6152
X5.3199Y-4.1152
X5.5074Y-6.3652
X5.6949Y-4.8652
X5.7886Y-7.1152
X5.8824Y-5.6152
X6.0699Y-4.1152
X6.2574Y-6.3652
X6.4449Y-4.8652
X6.6324Y-5.6152
X6.6326Y-7.4396
X6.8199Y-4.1152
X7.0074Y-6.3652
X7.1949Y-4.8652
X7.3824Y-5.6152
X7.5699Y-4.1152
X7.7574Y-6.3652
X7.9449Y-4.8652
X8.1324Y-5.6152
X8.3199Y-4.1152
X8.5074Y-6.3652
X8.6011Y-7.1152
X8.6949Y-4.8652
X8.8824Y-5.6152
X9.0699Y-4.1152
X9.2574Y-6.3652
X9.4449Y-4.8652
X9.6324Y-5.6152
X9.8199Y-4.1152
X10.0074Y-6.3652
X10.1949Y-4.8652
X10.3824Y-5.6152
X10.5696Y-7.4396
X10.5699Y-4.1152
X10.7574Y-6.3652
X10.9449Y-4.8652
X11.1324Y-5.6152
X11.3199Y-4.1152
X11.3199Y-7.1152
X11.5074Y-6.3652
X11.6949Y-4.8652
X11.8824Y-5.6152
X12.0699Y-4.1152
X12.0699Y-7.1152
X12.2574Y-6.3652
X12.4449Y-4.8652
X12.6324Y-5.6152
X12.8199Y-4.1152
X12.9136Y-7.1152
X12.9139Y-6.6896
X13.1949Y-4.8652
X13.3824Y-6.3652
X13.3826Y-5.9396
X13.4764Y-4.4396
X13.7574Y-7.1152
X13.8509Y-6.6896
X13.8511Y-5.6152
X13.9449Y-4.1152
X14.1324Y-4.8652
X14.3196Y-5.9396
X14.4134Y-4.4396
X14.5074Y-6.3652
X14.5074Y-7.1152
X15.2574Y-7.1152
M30
